# MagicaVoxel @ Ephtracy

# group
o book4

# material
mtllib AAhorrorInkviz-9-book4.mtl
usemtl palette

# normals
vn -1 0 0
vn 1 0 0
vn 0 0 1
vn 0 0 -1
vn 0 -1 0
vn 0 1 0

# texcoords
vt 0.255859 0.5
vt 0.423828 0.5
vt 0.455078 0.5

# verts
v -0.2 1.8 0
v -0.2 1.8 -0.1
v -0.2 1.8 -0.2
v -0.2 1.8 -0.3
v -0.2 2.4 0
v -0.2 2.4 -0.1
v -0.2 2.4 -0.2
v -0.2 2.4 -0.3
v 0.3 1.8 0
v 0.3 1.8 -0.3
v 0.3 1.9 -0.1
v 0.3 1.9 -0.2
v 0.3 2.3 -0.1
v 0.3 2.3 -0.2
v 0.3 2.4 0
v 0.3 2.4 -0.3
v -0.2 1.8 0
v -0.2 2.4 0
v -0.1 1.9 0
v -0.1 2 0
v -0.1 2.1 0
v -0.1 2.3 0
v 0.2 1.9 0
v 0.2 2 0
v 0.2 2.1 0
v 0.2 2.3 0
v 0.3 1.8 0
v 0.3 2.4 0
v -0.2 1.8 -0.3
v -0.2 2.4 -0.3
v -0.1 1.9 -0.3
v -0.1 2.1 -0.3
v -0.1 2.2 -0.3
v -0.1 2.3 -0.3
v 0.2 1.9 -0.3
v 0.2 2.1 -0.3
v 0.2 2.2 -0.3
v 0.2 2.3 -0.3
v 0.3 1.8 -0.3
v 0.3 2.4 -0.3
v -0.2 1.8 0
v 0.3 1.8 0
v -0.2 1.8 -0.1
v 0.2 1.8 -0.1
v -0.2 1.8 -0.2
v 0.2 1.8 -0.2
v -0.2 1.8 -0.3
v 0.3 1.8 -0.3
v -0.2 2.4 0
v 0.3 2.4 0
v -0.2 2.4 -0.1
v 0.2 2.4 -0.1
v -0.2 2.4 -0.2
v 0.2 2.4 -0.2
v -0.2 2.4 -0.3
v 0.3 2.4 -0.3

# faces
f 5/2/1 2/2/1 1/2/1
f 6/1/1 3/1/1 2/1/1
f 6/2/1 2/2/1 5/2/1
f 7/2/1 4/2/1 3/2/1
f 7/1/1 3/1/1 6/1/1
f 8/2/1 4/2/1 7/2/1
f 9/2/2 10/2/2 11/2/2
f 11/2/2 10/2/2 12/2/2
f 9/2/2 11/2/2 13/2/2
f 11/3/2 12/3/2 13/3/2
f 12/2/2 10/2/2 14/2/2
f 13/3/2 12/3/2 14/3/2
f 9/2/2 13/2/2 15/2/2
f 13/2/2 14/2/2 15/2/2
f 14/2/2 10/2/2 16/2/2
f 15/2/2 14/2/2 16/2/2
f 19/2/3 18/2/3 17/2/3
f 20/2/3 18/2/3 19/2/3
f 21/2/3 18/2/3 20/2/3
f 22/2/3 18/2/3 21/2/3
f 23/2/3 19/2/3 17/2/3
f 23/3/3 20/3/3 19/3/3
f 24/2/3 21/2/3 20/2/3
f 24/3/3 20/3/3 23/3/3
f 25/3/3 22/3/3 21/3/3
f 25/2/3 21/2/3 24/2/3
f 26/2/3 18/2/3 22/2/3
f 26/3/3 22/3/3 25/3/3
f 27/2/3 25/2/3 24/2/3
f 27/2/3 24/2/3 23/2/3
f 27/2/3 26/2/3 25/2/3
f 27/2/3 23/2/3 17/2/3
f 28/2/3 18/2/3 26/2/3
f 28/2/3 26/2/3 27/2/3
f 29/2/4 30/2/4 31/2/4
f 31/2/4 30/2/4 32/2/4
f 32/2/4 30/2/4 33/2/4
f 33/2/4 30/2/4 34/2/4
f 29/2/4 31/2/4 35/2/4
f 31/3/4 32/3/4 35/3/4
f 32/2/4 33/2/4 36/2/4
f 35/3/4 32/3/4 36/3/4
f 33/3/4 34/3/4 37/3/4
f 36/2/4 33/2/4 37/2/4
f 34/2/4 30/2/4 38/2/4
f 37/3/4 34/3/4 38/3/4
f 36/2/4 37/2/4 39/2/4
f 35/2/4 36/2/4 39/2/4
f 37/2/4 38/2/4 39/2/4
f 29/2/4 35/2/4 39/2/4
f 38/2/4 30/2/4 40/2/4
f 39/2/4 38/2/4 40/2/4
f 43/2/5 42/2/5 41/2/5
f 44/2/5 42/2/5 43/2/5
f 45/1/5 44/1/5 43/1/5
f 46/2/5 42/2/5 44/2/5
f 46/1/5 44/1/5 45/1/5
f 47/2/5 46/2/5 45/2/5
f 48/2/5 42/2/5 46/2/5
f 48/2/5 46/2/5 47/2/5
f 49/2/6 50/2/6 51/2/6
f 51/2/6 50/2/6 52/2/6
f 51/1/6 52/1/6 53/1/6
f 52/2/6 50/2/6 54/2/6
f 53/1/6 52/1/6 54/1/6
f 53/2/6 54/2/6 55/2/6
f 54/2/6 50/2/6 56/2/6
f 55/2/6 54/2/6 56/2/6
