# MagicaVoxel @ Ephtracy

# group
o cupboardLid2

# material
mtllib AAhorrorInkviz-14-cupboardLid2.mtl
usemtl palette

# normals
vn -1 0 0
vn 1 0 0
vn 0 0 1
vn 0 0 -1
vn 0 -1 0
vn 0 1 0

# texcoords
vt 0.318359 0.5
vt 0.322266 0.5

# verts
v -0.1 1.8 0.3
v -0.1 1.8 -0.5
v -0.1 1.9 0.2
v -0.1 1.9 -0.4
v -0.1 2.4 0.2
v -0.1 2.4 -0.4
v -0.1 2.5 0.3
v -0.1 2.5 -0.5
v 0 1.8 0.3
v 0 1.8 -0.5
v 0 1.9 0.2
v 0 1.9 -0.4
v 0 2 -0.2
v 0 2 -0.3
v 0 2.2 -0.2
v 0 2.2 -0.3
v 0 2.4 0.2
v 0 2.4 -0.4
v 0 2.5 0.3
v 0 2.5 -0.5
v 0.1 2 -0.2
v 0.1 2 -0.3
v 0.1 2.2 -0.2
v 0.1 2.2 -0.3
v -0.1 1.8 0.3
v -0.1 2.5 0.3
v 0 1.8 0.3
v 0 2.5 0.3
v 0 2 -0.2
v 0 2.2 -0.2
v 0.1 2 -0.2
v 0.1 2.2 -0.2
v 0 2 -0.3
v 0 2.2 -0.3
v 0.1 2 -0.3
v 0.1 2.2 -0.3
v -0.1 1.8 -0.5
v -0.1 2.5 -0.5
v 0 1.8 -0.5
v 0 2.5 -0.5
v -0.1 1.8 0.3
v 0 1.8 0.3
v -0.1 1.8 -0.5
v 0 1.8 -0.5
v 0 2 -0.2
v 0.1 2 -0.2
v 0 2 -0.3
v 0.1 2 -0.3
v 0 2.2 -0.2
v 0.1 2.2 -0.2
v 0 2.2 -0.3
v 0.1 2.2 -0.3
v -0.1 2.5 0.3
v 0 2.5 0.3
v -0.1 2.5 -0.5
v 0 2.5 -0.5

# faces
f 3/2/1 2/2/1 1/2/1
f 4/2/1 2/2/1 3/2/1
f 5/2/1 3/2/1 1/2/1
f 5/1/1 4/1/1 3/1/1
f 6/2/1 2/2/1 4/2/1
f 6/1/1 4/1/1 5/1/1
f 7/2/1 5/2/1 1/2/1
f 7/2/1 6/2/1 5/2/1
f 8/2/1 2/2/1 6/2/1
f 8/2/1 6/2/1 7/2/1
f 9/2/2 10/2/2 11/2/2
f 11/2/2 10/2/2 12/2/2
f 11/1/2 12/1/2 13/1/2
f 13/1/2 12/1/2 14/1/2
f 11/1/2 13/1/2 15/1/2
f 14/1/2 12/1/2 16/1/2
f 9/2/2 11/2/2 17/2/2
f 15/1/2 16/1/2 17/1/2
f 11/1/2 15/1/2 17/1/2
f 16/1/2 12/1/2 18/1/2
f 17/1/2 16/1/2 18/1/2
f 12/2/2 10/2/2 18/2/2
f 9/2/2 17/2/2 19/2/2
f 17/2/2 18/2/2 19/2/2
f 18/2/2 10/2/2 20/2/2
f 19/2/2 18/2/2 20/2/2
f 21/2/2 22/2/2 23/2/2
f 23/2/2 22/2/2 24/2/2
f 27/2/3 26/2/3 25/2/3
f 28/2/3 26/2/3 27/2/3
f 31/2/3 30/2/3 29/2/3
f 32/2/3 30/2/3 31/2/3
f 33/2/4 34/2/4 35/2/4
f 35/2/4 34/2/4 36/2/4
f 37/2/4 38/2/4 39/2/4
f 39/2/4 38/2/4 40/2/4
f 43/2/5 42/2/5 41/2/5
f 44/2/5 42/2/5 43/2/5
f 47/2/5 46/2/5 45/2/5
f 48/2/5 46/2/5 47/2/5
f 49/2/6 50/2/6 51/2/6
f 51/2/6 50/2/6 52/2/6
f 53/2/6 54/2/6 55/2/6
f 55/2/6 54/2/6 56/2/6
