# MagicaVoxel @ Ephtracy

# group
o wine

# material
mtllib AAhorrorInkviz-29-wine.mtl
usemtl palette

# normals
vn -1 0 0
vn 1 0 0
vn 0 0 1
vn 0 0 -1
vn 0 -1 0
vn 0 1 0

# texcoords
vt 0.251953 0.5
vt 0.287109 0.5
vt 0.322266 0.5
vt 0.326172 0.5

# verts
v -0.2 1.4 0
v -0.2 1.4 -0.2
v -0.2 1.6 0.1
v -0.2 1.6 0
v -0.2 1.6 -0.2
v -0.2 1.6 -0.3
v -0.2 1.7 0
v -0.2 1.7 -0.2
v -0.2 1.8 0.1
v -0.2 1.8 0
v -0.2 1.8 -0.2
v -0.2 1.8 -0.3
v -0.2 1.9 0
v -0.2 1.9 -0.2
v -0.2 2 0
v -0.2 2 -0.2
v -0.2 2.1 0.1
v -0.2 2.1 0
v -0.2 2.1 -0.2
v -0.2 2.1 -0.3
v -0.2 2.2 0
v -0.2 2.2 -0.2
v -0.2 2.3 0.1
v -0.2 2.3 0
v -0.2 2.3 -0.2
v -0.2 2.3 -0.3
v -0.2 2.6 0
v -0.2 2.6 -0.2
v -0.1 1.3 0
v -0.1 1.3 -0.2
v -0.1 1.4 0.1
v -0.1 1.4 0
v -0.1 1.4 -0.2
v -0.1 1.4 -0.3
v -0.1 1.6 0.1
v -0.1 1.6 0
v -0.1 1.6 -0.2
v -0.1 1.6 -0.3
v -0.1 2.3 0.1
v -0.1 2.3 0
v -0.1 2.3 -0.2
v -0.1 2.3 -0.3
v -0.1 2.6 0.1
v -0.1 2.6 0
v -0.1 2.6 -0.2
v -0.1 2.6 -0.3
v -0.1 2.9 0
v -0.1 2.9 -0.2
v -0.1 3 0
v -0.1 3 -0.2
v 0.1 1.3 0
v 0.1 1.3 -0.2
v 0.1 1.4 0.1
v 0.1 1.4 0
v 0.1 1.4 -0.2
v 0.1 1.4 -0.3
v 0.1 1.6 0.1
v 0.1 1.6 0
v 0.1 1.6 -0.2
v 0.1 1.6 -0.3
v 0.1 2.3 0.1
v 0.1 2.3 0
v 0.1 2.3 -0.2
v 0.1 2.3 -0.3
v 0.1 2.6 0.1
v 0.1 2.6 0
v 0.1 2.6 -0.2
v 0.1 2.6 -0.3
v 0.1 2.9 0
v 0.1 2.9 -0.2
v 0.1 3 0
v 0.1 3 -0.2
v 0.2 1.4 0
v 0.2 1.4 -0.2
v 0.2 1.6 0.1
v 0.2 1.6 0
v 0.2 1.6 -0.2
v 0.2 1.6 -0.3
v 0.2 1.7 0
v 0.2 1.7 -0.2
v 0.2 1.8 0.1
v 0.2 1.8 0
v 0.2 1.8 -0.2
v 0.2 1.8 -0.3
v 0.2 1.9 0
v 0.2 1.9 -0.2
v 0.2 2 0
v 0.2 2 -0.2
v 0.2 2.1 0.1
v 0.2 2.1 0
v 0.2 2.1 -0.2
v 0.2 2.1 -0.3
v 0.2 2.2 0
v 0.2 2.2 -0.2
v 0.2 2.3 0.1
v 0.2 2.3 0
v 0.2 2.3 -0.2
v 0.2 2.3 -0.3
v 0.2 2.6 0
v 0.2 2.6 -0.2
v -0.2 1.6 0.1
v -0.2 1.8 0.1
v -0.2 2.1 0.1
v -0.2 2.3 0.1
v -0.1 1.4 0.1
v -0.1 1.6 0.1
v -0.1 1.7 0.1
v -0.1 1.8 0.1
v -0.1 1.9 0.1
v -0.1 2 0.1
v -0.1 2.1 0.1
v -0.1 2.2 0.1
v -0.1 2.3 0.1
v -0.1 2.6 0.1
v 0.1 1.4 0.1
v 0.1 1.6 0.1
v 0.1 1.7 0.1
v 0.1 1.8 0.1
v 0.1 1.9 0.1
v 0.1 2 0.1
v 0.1 2.1 0.1
v 0.1 2.2 0.1
v 0.1 2.3 0.1
v 0.1 2.6 0.1
v 0.2 1.6 0.1
v 0.2 1.8 0.1
v 0.2 2.1 0.1
v 0.2 2.3 0.1
v -0.2 1.4 0
v -0.2 1.6 0
v -0.2 2.3 0
v -0.2 2.6 0
v -0.1 1.3 0
v -0.1 1.4 0
v -0.1 1.6 0
v -0.1 2.3 0
v -0.1 2.6 0
v -0.1 2.9 0
v -0.1 3 0
v 0.1 1.3 0
v 0.1 1.4 0
v 0.1 1.6 0
v 0.1 2.3 0
v 0.1 2.6 0
v 0.1 2.9 0
v 0.1 3 0
v 0.2 1.4 0
v 0.2 1.6 0
v 0.2 2.3 0
v 0.2 2.6 0
v -0.2 1.4 -0.2
v -0.2 1.6 -0.2
v -0.2 2.3 -0.2
v -0.2 2.6 -0.2
v -0.1 1.3 -0.2
v -0.1 1.4 -0.2
v -0.1 1.6 -0.2
v -0.1 2.3 -0.2
v -0.1 2.6 -0.2
v -0.1 2.9 -0.2
v -0.1 3 -0.2
v 0.1 1.3 -0.2
v 0.1 1.4 -0.2
v 0.1 1.6 -0.2
v 0.1 2.3 -0.2
v 0.1 2.6 -0.2
v 0.1 2.9 -0.2
v 0.1 3 -0.2
v 0.2 1.4 -0.2
v 0.2 1.6 -0.2
v 0.2 2.3 -0.2
v 0.2 2.6 -0.2
v -0.2 1.6 -0.3
v -0.2 1.8 -0.3
v -0.2 2.1 -0.3
v -0.2 2.3 -0.3
v -0.1 1.4 -0.3
v -0.1 1.6 -0.3
v -0.1 1.7 -0.3
v -0.1 1.8 -0.3
v -0.1 1.9 -0.3
v -0.1 2 -0.3
v -0.1 2.1 -0.3
v -0.1 2.2 -0.3
v -0.1 2.3 -0.3
v -0.1 2.6 -0.3
v 0.1 1.4 -0.3
v 0.1 1.6 -0.3
v 0.1 1.7 -0.3
v 0.1 1.8 -0.3
v 0.1 1.9 -0.3
v 0.1 2 -0.3
v 0.1 2.1 -0.3
v 0.1 2.2 -0.3
v 0.1 2.3 -0.3
v 0.1 2.6 -0.3
v 0.2 1.6 -0.3
v 0.2 1.8 -0.3
v 0.2 2.1 -0.3
v 0.2 2.3 -0.3
v -0.1 1.3 0
v 0.1 1.3 0
v -0.1 1.3 -0.2
v 0.1 1.3 -0.2
v -0.1 1.4 0.1
v 0.1 1.4 0.1
v -0.2 1.4 0
v -0.1 1.4 0
v 0.1 1.4 0
v 0.2 1.4 0
v -0.2 1.4 -0.2
v -0.1 1.4 -0.2
v 0.1 1.4 -0.2
v 0.2 1.4 -0.2
v -0.1 1.4 -0.3
v 0.1 1.4 -0.3
v -0.2 1.6 0.1
v -0.1 1.6 0.1
v 0.1 1.6 0.1
v 0.2 1.6 0.1
v -0.2 1.6 0
v -0.1 1.6 0
v 0.1 1.6 0
v 0.2 1.6 0
v -0.2 1.6 -0.2
v -0.1 1.6 -0.2
v 0.1 1.6 -0.2
v 0.2 1.6 -0.2
v -0.2 1.6 -0.3
v -0.1 1.6 -0.3
v 0.1 1.6 -0.3
v 0.2 1.6 -0.3
v -0.2 2.3 0.1
v -0.1 2.3 0.1
v 0.1 2.3 0.1
v 0.2 2.3 0.1
v -0.2 2.3 0
v -0.1 2.3 0
v 0.1 2.3 0
v 0.2 2.3 0
v -0.2 2.3 -0.2
v -0.1 2.3 -0.2
v 0.1 2.3 -0.2
v 0.2 2.3 -0.2
v -0.2 2.3 -0.3
v -0.1 2.3 -0.3
v 0.1 2.3 -0.3
v 0.2 2.3 -0.3
v -0.1 2.6 0.1
v 0.1 2.6 0.1
v -0.2 2.6 0
v -0.1 2.6 0
v 0.1 2.6 0
v 0.2 2.6 0
v -0.2 2.6 -0.2
v -0.1 2.6 -0.2
v 0.1 2.6 -0.2
v 0.2 2.6 -0.2
v -0.1 2.6 -0.3
v 0.1 2.6 -0.3
v -0.1 3 0
v 0.1 3 0
v -0.1 3 -0.2
v 0.1 3 -0.2

# faces
f 4/1/1 2/1/1 1/1/1
f 5/1/1 2/1/1 4/1/1
f 7/1/1 4/1/1 3/1/1
f 7/1/1 6/1/1 5/1/1
f 7/1/1 5/1/1 4/1/1
f 8/1/1 6/1/1 7/1/1
f 9/1/1 7/1/1 3/1/1
f 10/3/1 8/3/1 7/3/1
f 10/1/1 7/1/1 9/1/1
f 11/1/1 6/1/1 8/1/1
f 11/3/1 8/3/1 10/3/1
f 12/1/1 6/1/1 11/1/1
f 13/3/1 10/3/1 9/3/1
f 13/2/1 11/2/1 10/2/1
f 14/3/1 12/3/1 11/3/1
f 14/2/1 11/2/1 13/2/1
f 15/3/1 13/3/1 9/3/1
f 15/3/1 14/3/1 13/3/1
f 16/3/1 12/3/1 14/3/1
f 16/3/1 14/3/1 15/3/1
f 17/3/1 15/3/1 9/3/1
f 18/2/1 16/2/1 15/2/1
f 18/3/1 15/3/1 17/3/1
f 19/3/1 12/3/1 16/3/1
f 19/2/1 16/2/1 18/2/1
f 20/3/1 12/3/1 19/3/1
f 21/1/1 18/1/1 17/1/1
f 21/3/1 19/3/1 18/3/1
f 22/1/1 20/1/1 19/1/1
f 22/3/1 19/3/1 21/3/1
f 23/1/1 21/1/1 17/1/1
f 23/1/1 22/1/1 21/1/1
f 24/1/1 22/1/1 23/1/1
f 25/1/1 20/1/1 22/1/1
f 25/1/1 22/1/1 24/1/1
f 26/1/1 20/1/1 25/1/1
f 27/1/1 25/1/1 24/1/1
f 28/1/1 25/1/1 27/1/1
f 32/1/1 30/1/1 29/1/1
f 33/1/1 30/1/1 32/1/1
f 35/1/1 32/1/1 31/1/1
f 36/1/1 32/1/1 35/1/1
f 37/1/1 34/1/1 33/1/1
f 38/1/1 34/1/1 37/1/1
f 43/1/1 40/1/1 39/1/1
f 44/1/1 40/1/1 43/1/1
f 45/1/1 42/1/1 41/1/1
f 46/1/1 42/1/1 45/1/1
f 47/1/1 45/1/1 44/1/1
f 48/1/1 45/1/1 47/1/1
f 49/4/1 48/4/1 47/4/1
f 50/4/1 48/4/1 49/4/1
f 51/1/2 52/1/2 54/1/2
f 54/1/2 52/1/2 55/1/2
f 53/1/2 54/1/2 57/1/2
f 57/1/2 54/1/2 58/1/2
f 55/1/2 56/1/2 59/1/2
f 59/1/2 56/1/2 60/1/2
f 61/1/2 62/1/2 65/1/2
f 65/1/2 62/1/2 66/1/2
f 63/1/2 64/1/2 67/1/2
f 67/1/2 64/1/2 68/1/2
f 66/1/2 67/1/2 69/1/2
f 69/1/2 67/1/2 70/1/2
f 69/4/2 70/4/2 71/4/2
f 71/4/2 70/4/2 72/4/2
f 73/1/2 74/1/2 76/1/2
f 76/1/2 74/1/2 77/1/2
f 75/1/2 76/1/2 79/1/2
f 77/1/2 78/1/2 79/1/2
f 76/1/2 77/1/2 79/1/2
f 79/1/2 78/1/2 80/1/2
f 75/1/2 79/1/2 81/1/2
f 79/3/2 80/3/2 82/3/2
f 81/1/2 79/1/2 82/1/2
f 80/1/2 78/1/2 83/1/2
f 82/3/2 80/3/2 83/3/2
f 83/1/2 78/1/2 84/1/2
f 81/3/2 82/3/2 85/3/2
f 82/2/2 83/2/2 85/2/2
f 83/3/2 84/3/2 86/3/2
f 85/2/2 83/2/2 86/2/2
f 81/3/2 85/3/2 87/3/2
f 85/3/2 86/3/2 87/3/2
f 86/3/2 84/3/2 88/3/2
f 87/3/2 86/3/2 88/3/2
f 81/3/2 87/3/2 89/3/2
f 87/2/2 88/2/2 90/2/2
f 89/3/2 87/3/2 90/3/2
f 88/3/2 84/3/2 91/3/2
f 90/2/2 88/2/2 91/2/2
f 91/3/2 84/3/2 92/3/2
f 89/1/2 90/1/2 93/1/2
f 90/3/2 91/3/2 93/3/2
f 91/1/2 92/1/2 94/1/2
f 93/3/2 91/3/2 94/3/2
f 89/1/2 93/1/2 95/1/2
f 93/1/2 94/1/2 95/1/2
f 95/1/2 94/1/2 96/1/2
f 94/1/2 92/1/2 97/1/2
f 96/1/2 94/1/2 97/1/2
f 97/1/2 92/1/2 98/1/2
f 96/1/2 97/1/2 99/1/2
f 99/1/2 97/1/2 100/1/2
f 106/1/3 102/1/3 101/1/3
f 107/1/3 102/1/3 106/1/3
f 108/3/3 103/3/3 102/3/3
f 108/1/3 102/1/3 107/1/3
f 109/3/3 103/3/3 108/3/3
f 110/3/3 103/3/3 109/3/3
f 111/1/3 104/1/3 103/1/3
f 111/3/3 103/3/3 110/3/3
f 112/1/3 104/1/3 111/1/3
f 113/1/3 104/1/3 112/1/3
f 115/1/3 107/1/3 106/1/3
f 115/1/3 106/1/3 105/1/3
f 116/1/3 107/1/3 115/1/3
f 117/3/3 108/3/3 107/3/3
f 117/1/3 107/1/3 116/1/3
f 117/3/3 109/3/3 108/3/3
f 118/3/3 109/3/3 117/3/3
f 119/2/3 110/2/3 109/2/3
f 119/3/3 109/3/3 118/3/3
f 120/3/3 111/3/3 110/3/3
f 120/2/3 110/2/3 119/2/3
f 120/3/3 112/3/3 111/3/3
f 121/3/3 112/3/3 120/3/3
f 122/1/3 114/1/3 113/1/3
f 122/3/3 112/3/3 121/3/3
f 122/1/3 113/1/3 112/1/3
f 123/1/3 114/1/3 122/1/3
f 124/1/3 114/1/3 123/1/3
f 125/1/3 118/1/3 117/1/3
f 125/1/3 117/1/3 116/1/3
f 126/3/3 121/3/3 120/3/3
f 126/1/3 118/1/3 125/1/3
f 126/3/3 120/3/3 119/3/3
f 126/3/3 119/3/3 118/3/3
f 127/1/3 122/1/3 121/1/3
f 127/3/3 121/3/3 126/3/3
f 127/1/3 123/1/3 122/1/3
f 128/1/3 123/1/3 127/1/3
f 134/1/3 130/1/3 129/1/3
f 135/1/3 130/1/3 134/1/3
f 136/1/3 132/1/3 131/1/3
f 137/1/3 132/1/3 136/1/3
f 140/1/3 134/1/3 133/1/3
f 141/1/3 134/1/3 140/1/3
f 144/1/3 138/1/3 137/1/3
f 145/4/3 139/4/3 138/4/3
f 145/1/3 138/1/3 144/1/3
f 146/4/3 139/4/3 145/4/3
f 147/1/3 142/1/3 141/1/3
f 148/1/3 142/1/3 147/1/3
f 149/1/3 144/1/3 143/1/3
f 150/1/3 144/1/3 149/1/3
f 151/1/4 152/1/4 156/1/4
f 156/1/4 152/1/4 157/1/4
f 153/1/4 154/1/4 158/1/4
f 158/1/4 154/1/4 159/1/4
f 155/1/4 156/1/4 162/1/4
f 162/1/4 156/1/4 163/1/4
f 159/1/4 160/1/4 166/1/4
f 160/4/4 161/4/4 167/4/4
f 166/1/4 160/1/4 167/1/4
f 167/4/4 161/4/4 168/4/4
f 163/1/4 164/1/4 169/1/4
f 169/1/4 164/1/4 170/1/4
f 165/1/4 166/1/4 171/1/4
f 171/1/4 166/1/4 172/1/4
f 173/1/4 174/1/4 178/1/4
f 178/1/4 174/1/4 179/1/4
f 174/3/4 175/3/4 180/3/4
f 179/1/4 174/1/4 180/1/4
f 180/3/4 175/3/4 181/3/4
f 181/3/4 175/3/4 182/3/4
f 175/1/4 176/1/4 183/1/4
f 182/3/4 175/3/4 183/3/4
f 183/1/4 176/1/4 184/1/4
f 184/1/4 176/1/4 185/1/4
f 178/1/4 179/1/4 187/1/4
f 177/1/4 178/1/4 187/1/4
f 187/1/4 179/1/4 188/1/4
f 179/3/4 180/3/4 189/3/4
f 188/1/4 179/1/4 189/1/4
f 180/3/4 181/3/4 189/3/4
f 189/3/4 181/3/4 190/3/4
f 181/2/4 182/2/4 191/2/4
f 190/3/4 181/3/4 191/3/4
f 182/3/4 183/3/4 192/3/4
f 191/2/4 182/2/4 192/2/4
f 183/3/4 184/3/4 192/3/4
f 192/3/4 184/3/4 193/3/4
f 185/1/4 186/1/4 194/1/4
f 193/3/4 184/3/4 194/3/4
f 184/1/4 185/1/4 194/1/4
f 194/1/4 186/1/4 195/1/4
f 195/1/4 186/1/4 196/1/4
f 189/1/4 190/1/4 197/1/4
f 188/1/4 189/1/4 197/1/4
f 192/3/4 193/3/4 198/3/4
f 197/1/4 190/1/4 198/1/4
f 191/3/4 192/3/4 198/3/4
f 190/3/4 191/3/4 198/3/4
f 193/1/4 194/1/4 199/1/4
f 198/3/4 193/3/4 199/3/4
f 194/1/4 195/1/4 199/1/4
f 199/1/4 195/1/4 200/1/4
f 203/1/5 202/1/5 201/1/5
f 204/1/5 202/1/5 203/1/5
f 208/1/5 206/1/5 205/1/5
f 209/1/5 206/1/5 208/1/5
f 211/1/5 208/1/5 207/1/5
f 212/1/5 208/1/5 211/1/5
f 213/1/5 210/1/5 209/1/5
f 214/1/5 210/1/5 213/1/5
f 215/1/5 213/1/5 212/1/5
f 216/1/5 213/1/5 215/1/5
f 221/1/5 218/1/5 217/1/5
f 222/1/5 218/1/5 221/1/5
f 223/1/5 220/1/5 219/1/5
f 224/1/5 220/1/5 223/1/5
f 229/1/5 226/1/5 225/1/5
f 230/1/5 226/1/5 229/1/5
f 231/1/5 228/1/5 227/1/5
f 232/1/5 228/1/5 231/1/5
f 233/1/6 234/1/6 237/1/6
f 237/1/6 234/1/6 238/1/6
f 235/1/6 236/1/6 239/1/6
f 239/1/6 236/1/6 240/1/6
f 241/1/6 242/1/6 245/1/6
f 245/1/6 242/1/6 246/1/6
f 243/1/6 244/1/6 247/1/6
f 247/1/6 244/1/6 248/1/6
f 249/1/6 250/1/6 252/1/6
f 252/1/6 250/1/6 253/1/6
f 251/1/6 252/1/6 255/1/6
f 255/1/6 252/1/6 256/1/6
f 253/1/6 254/1/6 257/1/6
f 257/1/6 254/1/6 258/1/6
f 256/1/6 257/1/6 259/1/6
f 259/1/6 257/1/6 260/1/6
f 261/4/6 262/4/6 263/4/6
f 263/4/6 262/4/6 264/4/6
