# MagicaVoxel @ Ephtracy

# group
o crossbow

# material
mtllib AAhorrorInkviz-1-crossbow.mtl
usemtl palette

# normals
vn -1 0 0
vn 1 0 0
vn 0 0 1
vn 0 0 -1
vn 0 -1 0
vn 0 1 0

# texcoords
vt 0.220703 0.5
vt 0.236328 0.5
vt 0.240234 0.5
vt 0.322266 0.5

# verts
v -0.6 2.3 0.2
v -0.6 2.3 0.1
v -0.6 2.4 0.2
v -0.6 2.4 0.1
v -0.5 2.3 0.3
v -0.5 2.3 0.2
v -0.5 2.3 0.1
v -0.5 2.3 0
v -0.5 2.4 0.3
v -0.5 2.4 0.2
v -0.5 2.4 0.1
v -0.5 2.4 0
v -0.3 2.3 0.4
v -0.3 2.3 0.3
v -0.3 2.3 0
v -0.3 2.3 -0.1
v -0.3 2.4 0.4
v -0.3 2.4 0.3
v -0.3 2.4 0
v -0.3 2.4 -0.1
v -0.2 2.2 0.4
v -0.2 2.2 0.3
v -0.2 2.3 0.4
v -0.2 2.3 0.3
v -0.2 2.3 -0.1
v -0.2 2.3 -0.2
v -0.2 2.4 -0.1
v -0.2 2.4 -0.2
v -0.1 2.2 0.3
v -0.1 2.2 -0.8
v -0.1 2.3 0.6
v -0.1 2.3 0.5
v -0.1 2.3 0.4
v -0.1 2.3 0.3
v -0.1 2.3 0.1
v -0.1 2.3 0
v -0.1 2.3 -0.1
v -0.1 2.3 -0.2
v -0.1 2.3 -0.3
v -0.1 2.3 -0.4
v -0.1 2.3 -0.8
v -0.1 2.4 0.6
v -0.1 2.4 0.5
v -0.1 2.4 0.4
v -0.1 2.4 0.1
v -0.1 2.4 0
v -0.1 2.4 -0.2
v -0.1 2.4 -0.3
v -0.1 2.4 -0.4
v -5.96046e-08 1.9 -0.7
v -5.96046e-08 1.9 -0.9
v -5.96046e-08 2 -0.6
v -5.96046e-08 2 -0.7
v -5.96046e-08 2 -0.8
v -5.96046e-08 2 -0.9
v -5.96046e-08 2.1 -0.5
v -5.96046e-08 2.1 -0.6
v -5.96046e-08 2.1 -0.7
v -5.96046e-08 2.1 -0.8
v -5.96046e-08 2.2 0.6
v -5.96046e-08 2.2 0.4
v -5.96046e-08 2.2 -0.5
v -5.96046e-08 2.2 -0.6
v -5.96046e-08 2.2 -0.7
v -5.96046e-08 2.2 -0.8
v -5.96046e-08 2.2 -0.9
v -5.96046e-08 2.3 0.7
v -5.96046e-08 2.3 0.6
v -5.96046e-08 2.3 0.5
v -5.96046e-08 2.3 0.4
v -5.96046e-08 2.3 0.1
v -5.96046e-08 2.3 0
v -5.96046e-08 2.3 -0.1
v -5.96046e-08 2.3 -0.2
v -5.96046e-08 2.3 -0.4
v -5.96046e-08 2.3 -0.8
v -5.96046e-08 2.3 -0.9
v -5.96046e-08 2.4 0.7
v -5.96046e-08 2.4 0.6
v -5.96046e-08 2.4 0.4
v -5.96046e-08 2.4 0.1
v -5.96046e-08 2.4 0
v -5.96046e-08 2.4 -0.1
v -5.96046e-08 2.4 -0.2
v -5.96046e-08 2.4 -0.4
v -5.96046e-08 2.4 -0.8
v 0.2 2.3 0.4
v 0.2 2.3 0.3
v 0.2 2.3 -0.1
v 0.2 2.3 -0.2
v 0.2 2.4 0.4
v 0.2 2.4 0.3
v 0.2 2.4 -0.1
v 0.2 2.4 -0.2
v 0.3 2.3 0
v 0.3 2.3 -0.1
v 0.3 2.4 0
v 0.3 2.4 -0.1
v 0.4 2.3 0.3
v 0.4 2.3 0.2
v 0.4 2.3 0.1
v 0.4 2.3 0
v 0.4 2.4 0.3
v 0.4 2.4 0.2
v 0.4 2.4 0.1
v 0.4 2.4 0
v 0.6 2.3 0.2
v 0.6 2.3 0.1
v 0.6 2.4 0.2
v 0.6 2.4 0.1
v -0.5 2.3 0.2
v -0.5 2.3 0.1
v -0.5 2.4 0.2
v -0.5 2.4 0.1
v -0.3 2.3 0.3
v -0.3 2.3 0.2
v -0.3 2.3 0.1
v -0.3 2.3 0
v -0.3 2.4 0.3
v -0.3 2.4 0.2
v -0.3 2.4 0.1
v -0.3 2.4 0
v -0.2 2.3 0
v -0.2 2.3 -0.1
v -0.2 2.4 0
v -0.2 2.4 -0.1
v -0.1 2.3 0.4
v -0.1 2.3 0.3
v -0.1 2.3 -0.1
v -0.1 2.3 -0.2
v -0.1 2.4 0.4
v -0.1 2.4 0.3
v -0.1 2.4 -0.1
v -0.1 2.4 -0.2
v 0.1 1.9 -0.7
v 0.1 1.9 -0.9
v 0.1 2 -0.6
v 0.1 2 -0.7
v 0.1 2 -0.8
v 0.1 2 -0.9
v 0.1 2.1 -0.5
v 0.1 2.1 -0.6
v 0.1 2.1 -0.7
v 0.1 2.1 -0.8
v 0.1 2.2 0.6
v 0.1 2.2 0.4
v 0.1 2.2 -0.5
v 0.1 2.2 -0.6
v 0.1 2.2 -0.7
v 0.1 2.2 -0.8
v 0.1 2.2 -0.9
v 0.1 2.3 0.7
v 0.1 2.3 0.6
v 0.1 2.3 0.5
v 0.1 2.3 0.4
v 0.1 2.3 0.1
v 0.1 2.3 0
v 0.1 2.3 -0.1
v 0.1 2.3 -0.2
v 0.1 2.3 -0.4
v 0.1 2.3 -0.8
v 0.1 2.3 -0.9
v 0.1 2.4 0.7
v 0.1 2.4 0.6
v 0.1 2.4 0.4
v 0.1 2.4 0.1
v 0.1 2.4 0
v 0.1 2.4 -0.1
v 0.1 2.4 -0.2
v 0.1 2.4 -0.4
v 0.1 2.4 -0.8
v 0.2 2.2 0.3
v 0.2 2.2 -0.8
v 0.2 2.3 0.6
v 0.2 2.3 0.5
v 0.2 2.3 0.4
v 0.2 2.3 0.3
v 0.2 2.3 0.1
v 0.2 2.3 0
v 0.2 2.3 -0.1
v 0.2 2.3 -0.2
v 0.2 2.3 -0.3
v 0.2 2.3 -0.4
v 0.2 2.3 -0.8
v 0.2 2.4 0.6
v 0.2 2.4 0.5
v 0.2 2.4 0.4
v 0.2 2.4 0.1
v 0.2 2.4 0
v 0.2 2.4 -0.2
v 0.2 2.4 -0.3
v 0.2 2.4 -0.4
v 0.3 2.2 0.4
v 0.3 2.2 0.3
v 0.3 2.3 0.4
v 0.3 2.3 0.3
v 0.3 2.3 -0.1
v 0.3 2.3 -0.2
v 0.3 2.4 -0.1
v 0.3 2.4 -0.2
v 0.4 2.3 0.4
v 0.4 2.3 0.3
v 0.4 2.3 0
v 0.4 2.3 -0.1
v 0.4 2.4 0.4
v 0.4 2.4 0.3
v 0.4 2.4 0
v 0.4 2.4 -0.1
v 0.6 2.3 0.3
v 0.6 2.3 0.2
v 0.6 2.3 0.1
v 0.6 2.3 0
v 0.6 2.4 0.3
v 0.6 2.4 0.2
v 0.6 2.4 0.1
v 0.6 2.4 0
v 0.7 2.3 0.2
v 0.7 2.3 0.1
v 0.7 2.4 0.2
v 0.7 2.4 0.1
v -5.96046e-08 2.3 0.7
v -5.96046e-08 2.4 0.7
v 0.1 2.3 0.7
v 0.1 2.4 0.7
v -0.1 2.3 0.6
v -0.1 2.4 0.6
v -5.96046e-08 2.2 0.6
v -5.96046e-08 2.3 0.6
v -5.96046e-08 2.4 0.6
v 0.1 2.2 0.6
v 0.1 2.3 0.6
v 0.1 2.4 0.6
v 0.2 2.3 0.6
v 0.2 2.4 0.6
v -0.3 2.3 0.4
v -0.3 2.4 0.4
v -0.2 2.2 0.4
v -0.2 2.3 0.4
v -0.1 2.3 0.4
v -0.1 2.4 0.4
v -5.96046e-08 2.2 0.4
v -5.96046e-08 2.3 0.4
v 0.1 2.2 0.4
v 0.1 2.3 0.4
v 0.2 2.3 0.4
v 0.2 2.4 0.4
v 0.3 2.2 0.4
v 0.3 2.3 0.4
v 0.4 2.3 0.4
v 0.4 2.4 0.4
v -0.5 2.3 0.3
v -0.5 2.4 0.3
v -0.3 2.3 0.3
v -0.3 2.4 0.3
v 0.4 2.3 0.3
v 0.4 2.4 0.3
v 0.6 2.3 0.3
v 0.6 2.4 0.3
v -0.6 2.3 0.2
v -0.6 2.4 0.2
v -0.5 2.3 0.2
v -0.5 2.4 0.2
v 0.6 2.3 0.2
v 0.6 2.4 0.2
v 0.7 2.3 0.2
v 0.7 2.4 0.2
v -0.5 2.3 0.1
v -0.5 2.4 0.1
v -0.3 2.3 0.1
v -0.3 2.4 0.1
v -0.1 2.3 0.1
v -0.1 2.4 0.1
v -5.96046e-08 2.3 0.1
v -5.96046e-08 2.4 0.1
v 0.1 2.3 0.1
v 0.1 2.4 0.1
v 0.2 2.3 0.1
v 0.2 2.4 0.1
v 0.4 2.3 0.1
v 0.4 2.4 0.1
v 0.6 2.3 0.1
v 0.6 2.4 0.1
v -0.3 2.3 0
v -0.3 2.4 0
v -0.2 2.3 0
v -0.2 2.4 0
v 0.3 2.3 0
v 0.3 2.4 0
v 0.4 2.3 0
v 0.4 2.4 0
v -0.2 2.3 -0.1
v -0.2 2.4 -0.1
v -0.1 2.3 -0.1
v -0.1 2.4 -0.1
v 0.2 2.3 -0.1
v 0.2 2.4 -0.1
v 0.3 2.3 -0.1
v 0.3 2.4 -0.1
v -0.1 2.3 -0.2
v -0.1 2.4 -0.2
v -5.96046e-08 2.3 -0.2
v -5.96046e-08 2.4 -0.2
v 0.1 2.3 -0.2
v 0.1 2.4 -0.2
v 0.2 2.3 -0.2
v 0.2 2.4 -0.2
v -5.96046e-08 2.1 -0.5
v -5.96046e-08 2.2 -0.5
v 0.1 2.1 -0.5
v 0.1 2.2 -0.5
v -5.96046e-08 2 -0.6
v -5.96046e-08 2.1 -0.6
v 0.1 2 -0.6
v 0.1 2.1 -0.6
v -5.96046e-08 1.9 -0.7
v -5.96046e-08 2 -0.7
v 0.1 1.9 -0.7
v 0.1 2 -0.7
v -0.1 2.3 0.4
v -0.1 2.4 0.4
v -5.96046e-08 2.3 0.4
v -5.96046e-08 2.4 0.4
v 0.1 2.3 0.4
v 0.1 2.4 0.4
v 0.2 2.3 0.4
v 0.2 2.4 0.4
v -0.3 2.3 0.3
v -0.3 2.4 0.3
v -0.2 2.2 0.3
v -0.2 2.3 0.3
v -0.1 2.2 0.3
v -0.1 2.3 0.3
v -0.1 2.4 0.3
v 0.2 2.2 0.3
v 0.2 2.3 0.3
v 0.2 2.4 0.3
v 0.3 2.2 0.3
v 0.3 2.3 0.3
v 0.4 2.3 0.3
v 0.4 2.4 0.3
v -0.5 2.3 0.2
v -0.5 2.4 0.2
v -0.3 2.3 0.2
v -0.3 2.4 0.2
v 0.4 2.3 0.2
v 0.4 2.4 0.2
v 0.6 2.3 0.2
v 0.6 2.4 0.2
v -0.6 2.3 0.1
v -0.6 2.4 0.1
v -0.5 2.3 0.1
v -0.5 2.4 0.1
v 0.6 2.3 0.1
v 0.6 2.4 0.1
v 0.7 2.3 0.1
v 0.7 2.4 0.1
v -0.5 2.3 0
v -0.5 2.4 0
v -0.3 2.3 0
v -0.3 2.4 0
v -0.1 2.3 0
v -0.1 2.4 0
v -5.96046e-08 2.3 0
v -5.96046e-08 2.4 0
v 0.1 2.3 0
v 0.1 2.4 0
v 0.2 2.3 0
v 0.2 2.4 0
v 0.4 2.3 0
v 0.4 2.4 0
v 0.6 2.3 0
v 0.6 2.4 0
v -0.3 2.3 -0.1
v -0.3 2.4 -0.1
v -0.2 2.3 -0.1
v -0.2 2.4 -0.1
v 0.3 2.3 -0.1
v 0.3 2.4 -0.1
v 0.4 2.3 -0.1
v 0.4 2.4 -0.1
v -0.2 2.3 -0.2
v -0.2 2.4 -0.2
v -0.1 2.3 -0.2
v -0.1 2.4 -0.2
v 0.2 2.3 -0.2
v 0.2 2.4 -0.2
v 0.3 2.3 -0.2
v 0.3 2.4 -0.2
v -0.1 2.3 -0.4
v -0.1 2.4 -0.4
v -5.96046e-08 2.3 -0.4
v -5.96046e-08 2.4 -0.4
v 0.1 2.3 -0.4
v 0.1 2.4 -0.4
v 0.2 2.3 -0.4
v 0.2 2.4 -0.4
v -5.96046e-08 2.1 -0.7
v -5.96046e-08 2.2 -0.7
v 0.1 2.1 -0.7
v 0.1 2.2 -0.7
v -0.1 2.2 -0.8
v -0.1 2.3 -0.8
v -5.96046e-08 2 -0.8
v -5.96046e-08 2.1 -0.8
v -5.96046e-08 2.2 -0.8
v -5.96046e-08 2.3 -0.8
v -5.96046e-08 2.4 -0.8
v 0.1 2 -0.8
v 0.1 2.1 -0.8
v 0.1 2.2 -0.8
v 0.1 2.3 -0.8
v 0.1 2.4 -0.8
v 0.2 2.2 -0.8
v 0.2 2.3 -0.8
v -5.96046e-08 1.9 -0.9
v -5.96046e-08 2 -0.9
v -5.96046e-08 2.2 -0.9
v -5.96046e-08 2.3 -0.9
v 0.1 1.9 -0.9
v 0.1 2 -0.9
v 0.1 2.2 -0.9
v 0.1 2.3 -0.9
v -5.96046e-08 1.9 -0.7
v 0.1 1.9 -0.7
v -5.96046e-08 1.9 -0.9
v 0.1 1.9 -0.9
v -5.96046e-08 2 -0.6
v 0.1 2 -0.6
v -5.96046e-08 2 -0.7
v 0.1 2 -0.7
v -5.96046e-08 2.1 -0.5
v 0.1 2.1 -0.5
v -5.96046e-08 2.1 -0.6
v 0.1 2.1 -0.6
v -5.96046e-08 2.2 0.6
v 0.1 2.2 0.6
v -0.2 2.2 0.4
v -5.96046e-08 2.2 0.4
v 0.1 2.2 0.4
v 0.3 2.2 0.4
v -0.2 2.2 0.3
v -0.1 2.2 0.3
v 0.2 2.2 0.3
v 0.3 2.2 0.3
v -5.96046e-08 2.2 -0.5
v 0.1 2.2 -0.5
v -5.96046e-08 2.2 -0.6
v 0.1 2.2 -0.6
v -5.96046e-08 2.2 -0.7
v 0.1 2.2 -0.7
v -0.1 2.2 -0.8
v -5.96046e-08 2.2 -0.8
v 0.1 2.2 -0.8
v 0.2 2.2 -0.8
v -5.96046e-08 2.2 -0.9
v 0.1 2.2 -0.9
v -5.96046e-08 2.3 0.7
v 0.1 2.3 0.7
v -0.1 2.3 0.6
v -5.96046e-08 2.3 0.6
v 0.1 2.3 0.6
v 0.2 2.3 0.6
v -0.1 2.3 0.5
v -5.96046e-08 2.3 0.5
v 0.1 2.3 0.5
v 0.2 2.3 0.5
v -0.3 2.3 0.4
v -0.2 2.3 0.4
v -0.1 2.3 0.4
v -5.96046e-08 2.3 0.4
v 0.1 2.3 0.4
v 0.2 2.3 0.4
v 0.3 2.3 0.4
v 0.4 2.3 0.4
v -0.5 2.3 0.3
v -0.3 2.3 0.3
v -0.2 2.3 0.3
v 0.3 2.3 0.3
v 0.4 2.3 0.3
v 0.6 2.3 0.3
v -0.6 2.3 0.2
v -0.5 2.3 0.2
v -0.3 2.3 0.2
v 0.4 2.3 0.2
v 0.6 2.3 0.2
v 0.7 2.3 0.2
v -0.6 2.3 0.1
v -0.5 2.3 0.1
v -0.3 2.3 0.1
v 0.4 2.3 0.1
v 0.6 2.3 0.1
v 0.7 2.3 0.1
v -0.5 2.3 0
v -0.3 2.3 0
v -0.2 2.3 0
v 0.3 2.3 0
v 0.4 2.3 0
v 0.6 2.3 0
v -0.3 2.3 -0.1
v -0.2 2.3 -0.1
v -0.1 2.3 -0.1
v 0.2 2.3 -0.1
v 0.3 2.3 -0.1
v 0.4 2.3 -0.1
v -0.2 2.3 -0.2
v -0.1 2.3 -0.2
v 0.2 2.3 -0.2
v 0.3 2.3 -0.2
v -5.96046e-08 2 -0.8
v 0.1 2 -0.8
v -5.96046e-08 2 -0.9
v 0.1 2 -0.9
v -5.96046e-08 2.1 -0.7
v 0.1 2.1 -0.7
v -5.96046e-08 2.1 -0.8
v 0.1 2.1 -0.8
v -0.1 2.3 0.4
v -5.96046e-08 2.3 0.4
v 0.1 2.3 0.4
v 0.2 2.3 0.4
v -0.1 2.3 0.3
v 0.2 2.3 0.3
v -0.1 2.3 0.1
v -5.96046e-08 2.3 0.1
v 0.1 2.3 0.1
v 0.2 2.3 0.1
v -0.1 2.3 0
v -5.96046e-08 2.3 0
v 0.1 2.3 0
v 0.2 2.3 0
v -0.1 2.3 -0.1
v -5.96046e-08 2.3 -0.1
v 0.1 2.3 -0.1
v 0.2 2.3 -0.1
v -0.1 2.3 -0.2
v -5.96046e-08 2.3 -0.2
v 0.1 2.3 -0.2
v 0.2 2.3 -0.2
v -0.1 2.3 -0.4
v -5.96046e-08 2.3 -0.4
v 0.1 2.3 -0.4
v 0.2 2.3 -0.4
v -0.1 2.3 -0.8
v -5.96046e-08 2.3 -0.8
v 0.1 2.3 -0.8
v 0.2 2.3 -0.8
v -5.96046e-08 2.3 -0.9
v 0.1 2.3 -0.9
v -5.96046e-08 2.4 0.7
v 0.1 2.4 0.7
v -0.1 2.4 0.6
v -5.96046e-08 2.4 0.6
v 0.1 2.4 0.6
v 0.2 2.4 0.6
v -0.1 2.4 0.5
v -5.96046e-08 2.4 0.5
v 0.1 2.4 0.5
v 0.2 2.4 0.5
v -0.3 2.4 0.4
v -0.1 2.4 0.4
v -5.96046e-08 2.4 0.4
v 0.1 2.4 0.4
v 0.2 2.4 0.4
v 0.4 2.4 0.4
v -0.5 2.4 0.3
v -0.3 2.4 0.3
v -0.1 2.4 0.3
v 0.2 2.4 0.3
v 0.4 2.4 0.3
v 0.6 2.4 0.3
v -0.6 2.4 0.2
v -0.5 2.4 0.2
v -0.3 2.4 0.2
v 0.4 2.4 0.2
v 0.6 2.4 0.2
v 0.7 2.4 0.2
v -0.6 2.4 0.1
v -0.5 2.4 0.1
v -0.3 2.4 0.1
v -0.1 2.4 0.1
v -5.96046e-08 2.4 0.1
v 0.1 2.4 0.1
v 0.2 2.4 0.1
v 0.4 2.4 0.1
v 0.6 2.4 0.1
v 0.7 2.4 0.1
v -0.5 2.4 0
v -0.3 2.4 0
v -0.2 2.4 0
v -0.1 2.4 0
v -5.96046e-08 2.4 0
v 0.1 2.4 0
v 0.2 2.4 0
v 0.3 2.4 0
v 0.4 2.4 0
v 0.6 2.4 0
v -0.3 2.4 -0.1
v -0.2 2.4 -0.1
v -0.1 2.4 -0.1
v -5.96046e-08 2.4 -0.1
v 0.1 2.4 -0.1
v 0.2 2.4 -0.1
v 0.3 2.4 -0.1
v 0.4 2.4 -0.1
v -0.2 2.4 -0.2
v -0.1 2.4 -0.2
v -5.96046e-08 2.4 -0.2
v 0.1 2.4 -0.2
v 0.2 2.4 -0.2
v 0.3 2.4 -0.2
v -0.1 2.4 -0.3
v -5.96046e-08 2.4 -0.3
v 0.1 2.4 -0.3
v 0.2 2.4 -0.3
v -0.1 2.4 -0.4
v -5.96046e-08 2.4 -0.4
v 0.1 2.4 -0.4
v 0.2 2.4 -0.4
v -5.96046e-08 2.4 -0.8
v 0.1 2.4 -0.8

# faces
f 3/3/1 2/3/1 1/3/1
f 4/3/1 2/3/1 3/3/1
f 9/3/1 6/3/1 5/3/1
f 10/3/1 6/3/1 9/3/1
f 11/2/1 8/2/1 7/2/1
f 12/2/1 8/2/1 11/2/1
f 17/3/1 14/3/1 13/3/1
f 18/3/1 14/3/1 17/3/1
f 19/2/1 16/2/1 15/2/1
f 20/2/1 16/2/1 19/2/1
f 23/3/1 22/3/1 21/3/1
f 24/3/1 22/3/1 23/3/1
f 27/2/1 26/2/1 25/2/1
f 28/2/1 26/2/1 27/2/1
f 34/3/1 30/3/1 29/3/1
f 35/3/1 30/3/1 34/3/1
f 36/3/1 30/3/1 35/3/1
f 37/3/1 30/3/1 36/3/1
f 38/3/1 30/3/1 37/3/1
f 39/3/1 30/3/1 38/3/1
f 40/3/1 30/3/1 39/3/1
f 41/3/1 30/3/1 40/3/1
f 42/2/1 32/2/1 31/2/1
f 43/3/1 33/3/1 32/3/1
f 43/2/1 32/2/1 42/2/1
f 44/3/1 33/3/1 43/3/1
f 45/3/1 36/3/1 35/3/1
f 46/3/1 36/3/1 45/3/1
f 47/2/1 39/2/1 38/2/1
f 48/3/1 40/3/1 39/3/1
f 48/2/1 39/2/1 47/2/1
f 49/3/1 40/3/1 48/3/1
f 53/3/1 51/3/1 50/3/1
f 54/3/1 51/3/1 53/3/1
f 55/3/1 51/3/1 54/3/1
f 57/3/1 53/3/1 52/3/1
f 57/3/1 54/3/1 53/3/1
f 58/3/1 54/3/1 57/3/1
f 59/3/1 54/3/1 58/3/1
f 62/2/1 57/2/1 56/2/1
f 63/3/1 58/3/1 57/3/1
f 63/2/1 57/2/1 62/2/1
f 64/3/1 58/3/1 63/3/1
f 68/3/1 61/3/1 60/3/1
f 69/3/1 61/3/1 68/3/1
f 70/3/1 61/3/1 69/3/1
f 76/3/1 66/3/1 65/3/1
f 77/3/1 66/3/1 76/3/1
f 78/2/1 68/2/1 67/2/1
f 79/2/1 68/2/1 78/2/1
f 80/4/1 71/4/1 70/4/1
f 81/4/1 71/4/1 80/4/1
f 82/4/1 73/4/1 72/4/1
f 83/1/1 74/1/1 73/1/1
f 83/4/1 73/4/1 82/4/1
f 84/1/1 74/1/1 83/1/1
f 85/3/1 76/3/1 75/3/1
f 86/3/1 76/3/1 85/3/1
f 91/3/1 88/3/1 87/3/1
f 92/3/1 88/3/1 91/3/1
f 93/2/1 90/2/1 89/2/1
f 94/2/1 90/2/1 93/2/1
f 97/2/1 96/2/1 95/2/1
f 98/2/1 96/2/1 97/2/1
f 103/3/1 100/3/1 99/3/1
f 104/3/1 100/3/1 103/3/1
f 105/2/1 102/2/1 101/2/1
f 106/2/1 102/2/1 105/2/1
f 109/3/1 108/3/1 107/3/1
f 110/3/1 108/3/1 109/3/1
f 111/3/2 112/3/2 113/3/2
f 113/3/2 112/3/2 114/3/2
f 115/3/2 116/3/2 119/3/2
f 119/3/2 116/3/2 120/3/2
f 117/2/2 118/2/2 121/2/2
f 121/2/2 118/2/2 122/2/2
f 123/2/2 124/2/2 125/2/2
f 125/2/2 124/2/2 126/2/2
f 127/3/2 128/3/2 131/3/2
f 131/3/2 128/3/2 132/3/2
f 129/2/2 130/2/2 133/2/2
f 133/2/2 130/2/2 134/2/2
f 135/3/2 136/3/2 138/3/2
f 138/3/2 136/3/2 139/3/2
f 139/3/2 136/3/2 140/3/2
f 137/3/2 138/3/2 142/3/2
f 138/3/2 139/3/2 142/3/2
f 142/3/2 139/3/2 143/3/2
f 143/3/2 139/3/2 144/3/2
f 141/2/2 142/2/2 147/2/2
f 142/3/2 143/3/2 148/3/2
f 147/2/2 142/2/2 148/2/2
f 148/3/2 143/3/2 149/3/2
f 145/3/2 146/3/2 153/3/2
f 153/3/2 146/3/2 154/3/2
f 154/3/2 146/3/2 155/3/2
f 150/3/2 151/3/2 161/3/2
f 161/3/2 151/3/2 162/3/2
f 152/2/2 153/2/2 163/2/2
f 163/2/2 153/2/2 164/2/2
f 155/4/2 156/4/2 165/4/2
f 165/4/2 156/4/2 166/4/2
f 157/4/2 158/4/2 167/4/2
f 158/1/2 159/1/2 168/1/2
f 167/4/2 158/4/2 168/4/2
f 168/1/2 159/1/2 169/1/2
f 160/3/2 161/3/2 170/3/2
f 170/3/2 161/3/2 171/3/2
f 172/3/2 173/3/2 177/3/2
f 177/3/2 173/3/2 178/3/2
f 178/3/2 173/3/2 179/3/2
f 179/3/2 173/3/2 180/3/2
f 180/3/2 173/3/2 181/3/2
f 181/3/2 173/3/2 182/3/2
f 182/3/2 173/3/2 183/3/2
f 183/3/2 173/3/2 184/3/2
f 174/2/2 175/2/2 185/2/2
f 175/3/2 176/3/2 186/3/2
f 185/2/2 175/2/2 186/2/2
f 186/3/2 176/3/2 187/3/2
f 178/3/2 179/3/2 188/3/2
f 188/3/2 179/3/2 189/3/2
f 181/2/2 182/2/2 190/2/2
f 182/3/2 183/3/2 191/3/2
f 190/2/2 182/2/2 191/2/2
f 191/3/2 183/3/2 192/3/2
f 193/3/2 194/3/2 195/3/2
f 195/3/2 194/3/2 196/3/2
f 197/2/2 198/2/2 199/2/2
f 199/2/2 198/2/2 200/2/2
f 201/3/2 202/3/2 205/3/2
f 205/3/2 202/3/2 206/3/2
f 203/2/2 204/2/2 207/2/2
f 207/2/2 204/2/2 208/2/2
f 209/3/2 210/3/2 213/3/2
f 213/3/2 210/3/2 214/3/2
f 211/2/2 212/2/2 215/2/2
f 215/2/2 212/2/2 216/2/2
f 217/3/2 218/3/2 219/3/2
f 219/3/2 218/3/2 220/3/2
f 223/2/3 222/2/3 221/2/3
f 224/2/3 222/2/3 223/2/3
f 228/2/3 226/2/3 225/2/3
f 229/2/3 226/2/3 228/2/3
f 230/3/3 228/3/3 227/3/3
f 231/3/3 228/3/3 230/3/3
f 233/2/3 232/2/3 231/2/3
f 234/2/3 232/2/3 233/2/3
f 238/3/3 236/3/3 235/3/3
f 239/3/3 236/3/3 238/3/3
f 239/3/3 238/3/3 237/3/3
f 240/3/3 236/3/3 239/3/3
f 241/3/3 239/3/3 237/3/3
f 242/3/3 239/3/3 241/3/3
f 245/3/3 244/3/3 243/3/3
f 247/3/3 245/3/3 243/3/3
f 247/3/3 246/3/3 245/3/3
f 248/3/3 246/3/3 247/3/3
f 249/3/3 246/3/3 248/3/3
f 250/3/3 246/3/3 249/3/3
f 253/3/3 252/3/3 251/3/3
f 254/3/3 252/3/3 253/3/3
f 257/3/3 256/3/3 255/3/3
f 258/3/3 256/3/3 257/3/3
f 261/3/3 260/3/3 259/3/3
f 262/3/3 260/3/3 261/3/3
f 265/3/3 264/3/3 263/3/3
f 266/3/3 264/3/3 265/3/3
f 269/2/3 268/2/3 267/2/3
f 270/2/3 268/2/3 269/2/3
f 273/3/3 272/3/3 271/3/3
f 274/3/3 272/3/3 273/3/3
f 277/3/3 276/3/3 275/3/3
f 278/3/3 276/3/3 277/3/3
f 281/2/3 280/2/3 279/2/3
f 282/2/3 280/2/3 281/2/3
f 285/2/3 284/2/3 283/2/3
f 286/2/3 284/2/3 285/2/3
f 289/2/3 288/2/3 287/2/3
f 290/2/3 288/2/3 289/2/3
f 293/2/3 292/2/3 291/2/3
f 294/2/3 292/2/3 293/2/3
f 297/2/3 296/2/3 295/2/3
f 298/2/3 296/2/3 297/2/3
f 301/2/3 300/2/3 299/2/3
f 302/2/3 300/2/3 301/2/3
f 305/2/3 304/2/3 303/2/3
f 306/2/3 304/2/3 305/2/3
f 309/2/3 308/2/3 307/2/3
f 310/2/3 308/2/3 309/2/3
f 313/3/3 312/3/3 311/3/3
f 314/3/3 312/3/3 313/3/3
f 317/3/3 316/3/3 315/3/3
f 318/3/3 316/3/3 317/3/3
f 319/3/4 320/3/4 321/3/4
f 321/3/4 320/3/4 322/3/4
f 323/3/4 324/3/4 325/3/4
f 325/3/4 324/3/4 326/3/4
f 327/3/4 328/3/4 330/3/4
f 329/3/4 330/3/4 331/3/4
f 330/3/4 328/3/4 332/3/4
f 331/3/4 330/3/4 332/3/4
f 332/3/4 328/3/4 333/3/4
f 334/3/4 335/3/4 337/3/4
f 335/3/4 336/3/4 337/3/4
f 337/3/4 336/3/4 338/3/4
f 338/3/4 336/3/4 339/3/4
f 339/3/4 336/3/4 340/3/4
f 341/3/4 342/3/4 343/3/4
f 343/3/4 342/3/4 344/3/4
f 345/3/4 346/3/4 347/3/4
f 347/3/4 346/3/4 348/3/4
f 349/3/4 350/3/4 351/3/4
f 351/3/4 350/3/4 352/3/4
f 353/3/4 354/3/4 355/3/4
f 355/3/4 354/3/4 356/3/4
f 357/2/4 358/2/4 359/2/4
f 359/2/4 358/2/4 360/2/4
f 361/3/4 362/3/4 363/3/4
f 363/3/4 362/3/4 364/3/4
f 365/3/4 366/3/4 367/3/4
f 367/3/4 366/3/4 368/3/4
f 369/2/4 370/2/4 371/2/4
f 371/2/4 370/2/4 372/2/4
f 373/2/4 374/2/4 375/2/4
f 375/2/4 374/2/4 376/2/4
f 377/2/4 378/2/4 379/2/4
f 379/2/4 378/2/4 380/2/4
f 381/2/4 382/2/4 383/2/4
f 383/2/4 382/2/4 384/2/4
f 385/2/4 386/2/4 387/2/4
f 387/2/4 386/2/4 388/2/4
f 389/3/4 390/3/4 391/3/4
f 391/3/4 390/3/4 392/3/4
f 393/3/4 394/3/4 395/3/4
f 395/3/4 394/3/4 396/3/4
f 397/3/4 398/3/4 399/3/4
f 399/3/4 398/3/4 400/3/4
f 401/3/4 402/3/4 405/3/4
f 405/3/4 402/3/4 406/3/4
f 403/3/4 404/3/4 408/3/4
f 408/3/4 404/3/4 409/3/4
f 406/3/4 407/3/4 411/3/4
f 411/3/4 407/3/4 412/3/4
f 410/3/4 411/3/4 413/3/4
f 413/3/4 411/3/4 414/3/4
f 415/3/4 416/3/4 419/3/4
f 419/3/4 416/3/4 420/3/4
f 417/3/4 418/3/4 421/3/4
f 421/3/4 418/3/4 422/3/4
f 425/3/5 424/3/5 423/3/5
f 426/3/5 424/3/5 425/3/5
f 429/3/5 428/3/5 427/3/5
f 430/3/5 428/3/5 429/3/5
f 433/2/5 432/2/5 431/2/5
f 434/2/5 432/2/5 433/2/5
f 438/3/5 436/3/5 435/3/5
f 439/3/5 436/3/5 438/3/5
f 441/3/5 438/3/5 437/3/5
f 441/3/5 440/3/5 439/3/5
f 441/3/5 439/3/5 438/3/5
f 442/3/5 440/3/5 441/3/5
f 443/3/5 440/3/5 442/3/5
f 444/3/5 440/3/5 443/3/5
f 445/3/5 443/3/5 442/3/5
f 446/3/5 443/3/5 445/3/5
f 447/3/5 445/3/5 442/3/5
f 448/3/5 443/3/5 446/3/5
f 449/3/5 447/3/5 442/3/5
f 450/3/5 443/3/5 448/3/5
f 451/3/5 449/3/5 442/3/5
f 451/3/5 450/3/5 449/3/5
f 452/3/5 450/3/5 451/3/5
f 453/3/5 443/3/5 450/3/5
f 453/3/5 450/3/5 452/3/5
f 454/3/5 443/3/5 453/3/5
f 455/3/5 453/3/5 452/3/5
f 456/3/5 453/3/5 455/3/5
f 460/2/5 458/2/5 457/2/5
f 461/2/5 458/2/5 460/2/5
f 463/2/5 460/2/5 459/2/5
f 464/2/5 460/2/5 463/2/5
f 465/2/5 462/2/5 461/2/5
f 466/2/5 462/2/5 465/2/5
f 469/3/5 464/3/5 463/3/5
f 470/3/5 464/3/5 469/3/5
f 471/3/5 466/3/5 465/3/5
f 472/3/5 466/3/5 471/3/5
f 476/3/5 468/3/5 467/3/5
f 477/3/5 468/3/5 476/3/5
f 478/3/5 474/3/5 473/3/5
f 479/3/5 474/3/5 478/3/5
f 482/3/5 476/3/5 475/3/5
f 483/3/5 476/3/5 482/3/5
f 484/3/5 480/3/5 479/3/5
f 485/3/5 480/3/5 484/3/5
f 487/3/5 482/3/5 481/3/5
f 488/3/5 482/3/5 487/3/5
f 491/3/5 486/3/5 485/3/5
f 492/3/5 486/3/5 491/3/5
f 493/2/5 489/2/5 488/2/5
f 494/2/5 489/2/5 493/2/5
f 497/2/5 491/2/5 490/2/5
f 498/2/5 491/2/5 497/2/5
f 499/2/5 495/2/5 494/2/5
f 500/2/5 495/2/5 499/2/5
f 503/2/5 497/2/5 496/2/5
f 504/2/5 497/2/5 503/2/5
f 505/2/5 501/2/5 500/2/5
f 506/2/5 501/2/5 505/2/5
f 507/2/5 503/2/5 502/2/5
f 508/2/5 503/2/5 507/2/5
f 509/3/6 510/3/6 511/3/6
f 511/3/6 510/3/6 512/3/6
f 513/3/6 514/3/6 515/3/6
f 515/3/6 514/3/6 516/3/6
f 517/3/6 518/3/6 521/3/6
f 519/3/6 520/3/6 522/3/6
f 521/3/6 518/3/6 523/3/6
f 523/3/6 518/3/6 524/3/6
f 519/3/6 522/3/6 525/3/6
f 525/3/6 522/3/6 526/3/6
f 527/3/6 528/3/6 531/3/6
f 531/3/6 528/3/6 532/3/6
f 529/3/6 530/3/6 533/3/6
f 533/3/6 530/3/6 534/3/6
f 531/3/6 532/3/6 535/3/6
f 535/3/6 532/3/6 536/3/6
f 533/3/6 534/3/6 537/3/6
f 537/3/6 534/3/6 538/3/6
f 539/3/6 540/3/6 543/3/6
f 543/3/6 540/3/6 544/3/6
f 541/3/6 542/3/6 545/3/6
f 545/3/6 542/3/6 546/3/6
f 544/3/6 545/3/6 547/3/6
f 547/3/6 545/3/6 548/3/6
f 549/2/6 550/2/6 552/2/6
f 552/2/6 550/2/6 553/2/6
f 551/2/6 552/2/6 555/2/6
f 552/4/6 553/4/6 556/4/6
f 555/2/6 552/2/6 556/2/6
f 553/2/6 554/2/6 557/2/6
f 556/4/6 553/4/6 557/4/6
f 557/2/6 554/2/6 558/2/6
f 555/3/6 556/3/6 560/3/6
f 556/4/6 557/4/6 561/4/6
f 560/3/6 556/3/6 561/3/6
f 557/3/6 558/3/6 562/3/6
f 561/4/6 557/4/6 562/4/6
f 562/3/6 558/3/6 563/3/6
f 559/3/6 560/3/6 566/3/6
f 566/3/6 560/3/6 567/3/6
f 563/3/6 564/3/6 568/3/6
f 568/3/6 564/3/6 569/3/6
f 565/3/6 566/3/6 572/3/6
f 572/3/6 566/3/6 573/3/6
f 569/3/6 570/3/6 574/3/6
f 574/3/6 570/3/6 575/3/6
f 571/3/6 572/3/6 577/3/6
f 577/3/6 572/3/6 578/3/6
f 561/4/6 562/4/6 581/4/6
f 581/4/6 562/4/6 582/4/6
f 575/3/6 576/3/6 585/3/6
f 585/3/6 576/3/6 586/3/6
f 578/2/6 579/2/6 587/2/6
f 587/2/6 579/2/6 588/2/6
f 580/3/6 581/3/6 590/3/6
f 581/4/6 582/4/6 591/4/6
f 590/3/6 581/3/6 591/3/6
f 582/3/6 583/3/6 592/3/6
f 591/4/6 582/4/6 592/4/6
f 592/3/6 583/3/6 593/3/6
f 584/2/6 585/2/6 595/2/6
f 595/2/6 585/2/6 596/2/6
f 588/2/6 589/2/6 597/2/6
f 597/2/6 589/2/6 598/2/6
f 591/4/6 592/4/6 600/4/6
f 600/4/6 592/4/6 601/4/6
f 594/2/6 595/2/6 603/2/6
f 603/2/6 595/2/6 604/2/6
f 598/2/6 599/2/6 605/2/6
f 605/2/6 599/2/6 606/2/6
f 600/1/6 601/1/6 607/1/6
f 607/1/6 601/1/6 608/1/6
f 602/2/6 603/2/6 609/2/6
f 609/2/6 603/2/6 610/2/6
f 606/2/6 607/2/6 611/2/6
f 607/1/6 608/1/6 612/1/6
f 611/2/6 607/2/6 612/2/6
f 608/2/6 609/2/6 613/2/6
f 612/1/6 608/1/6 613/1/6
f 613/2/6 609/2/6 614/2/6
f 611/3/6 612/3/6 615/3/6
f 612/2/6 613/2/6 616/2/6
f 615/3/6 612/3/6 616/3/6
f 613/3/6 614/3/6 617/3/6
f 616/2/6 613/2/6 617/2/6
f 617/3/6 614/3/6 618/3/6
f 616/3/6 617/3/6 619/3/6
f 619/3/6 617/3/6 620/3/6
