# MagicaVoxel @ Ephtracy

# group
o syringeRedHeal

# material
mtllib 1horG-10-syringeRedHeal.mtl
usemtl palette

# normals
vn -1 0 0
vn 1 0 0
vn 0 0 1
vn 0 0 -1
vn 0 -1 0
vn 0 1 0

# texcoords
vt 0.00585938 0.5
vt 0.0957031 0.5
vt 0.431641 0.5

# verts
v -0.1 1.9 -0.1
v -0.1 1.9 -0.2
v -0.1 2.1 -0.1
v -0.1 2.1 -0.2
v -0.1 2.2 -0.1
v -0.1 2.2 -0.2
v -0.1 2.3 -0.1
v -0.1 2.3 -0.2
v -0.1 2.4 -0.1
v -0.1 2.4 -0.2
v -0.1 2.5 -0.1
v -0.1 2.5 -0.2
v 0 1.7 -0.1
v 0 1.7 -0.2
v 0 1.9 0
v 0 1.9 -0.1
v 0 1.9 -0.2
v 0 1.9 -0.3
v 0 2.1 0
v 0 2.1 -0.1
v 0 2.1 -0.2
v 0 2.1 -0.3
v 0 2.2 0
v 0 2.2 -0.1
v 0 2.2 -0.2
v 0 2.2 -0.3
v 0 2.3 0
v 0 2.3 -0.1
v 0 2.3 -0.2
v 0 2.3 -0.3
v 0 2.4 0
v 0 2.4 -0.1
v 0 2.4 -0.2
v 0 2.4 -0.3
v 0 2.5 0
v 0 2.5 -0.1
v 0 2.5 -0.2
v 0 2.5 -0.3
v 0.1 1.7 -0.1
v 0.1 1.7 -0.2
v 0.1 1.9 0
v 0.1 1.9 -0.1
v 0.1 1.9 -0.2
v 0.1 1.9 -0.3
v 0.1 2.1 0
v 0.1 2.1 -0.1
v 0.1 2.1 -0.2
v 0.1 2.1 -0.3
v 0.1 2.2 0
v 0.1 2.2 -0.1
v 0.1 2.2 -0.2
v 0.1 2.2 -0.3
v 0.1 2.3 0
v 0.1 2.3 -0.1
v 0.1 2.3 -0.2
v 0.1 2.3 -0.3
v 0.1 2.4 0
v 0.1 2.4 -0.1
v 0.1 2.4 -0.2
v 0.1 2.4 -0.3
v 0.1 2.5 0
v 0.1 2.5 -0.1
v 0.1 2.5 -0.2
v 0.1 2.5 -0.3
v 0.2 1.9 -0.1
v 0.2 1.9 -0.2
v 0.2 2.1 -0.1
v 0.2 2.1 -0.2
v 0.2 2.2 -0.1
v 0.2 2.2 -0.2
v 0.2 2.3 -0.1
v 0.2 2.3 -0.2
v 0.2 2.4 -0.1
v 0.2 2.4 -0.2
v 0.2 2.5 -0.1
v 0.2 2.5 -0.2
v 0 1.9 0
v 0 2.1 0
v 0 2.2 0
v 0 2.3 0
v 0 2.4 0
v 0 2.5 0
v 0.1 1.9 0
v 0.1 2.1 0
v 0.1 2.2 0
v 0.1 2.3 0
v 0.1 2.4 0
v 0.1 2.5 0
v -0.1 1.9 -0.1
v -0.1 2.1 -0.1
v -0.1 2.2 -0.1
v -0.1 2.3 -0.1
v -0.1 2.4 -0.1
v -0.1 2.5 -0.1
v 0 1.7 -0.1
v 0 1.9 -0.1
v 0 2.1 -0.1
v 0 2.2 -0.1
v 0 2.3 -0.1
v 0 2.4 -0.1
v 0 2.5 -0.1
v 0.1 1.7 -0.1
v 0.1 1.9 -0.1
v 0.1 2.1 -0.1
v 0.1 2.2 -0.1
v 0.1 2.3 -0.1
v 0.1 2.4 -0.1
v 0.1 2.5 -0.1
v 0.2 1.9 -0.1
v 0.2 2.1 -0.1
v 0.2 2.2 -0.1
v 0.2 2.3 -0.1
v 0.2 2.4 -0.1
v 0.2 2.5 -0.1
v -0.1 1.9 -0.2
v -0.1 2.1 -0.2
v -0.1 2.2 -0.2
v -0.1 2.3 -0.2
v -0.1 2.4 -0.2
v -0.1 2.5 -0.2
v 0 1.7 -0.2
v 0 1.9 -0.2
v 0 2.1 -0.2
v 0 2.2 -0.2
v 0 2.3 -0.2
v 0 2.4 -0.2
v 0 2.5 -0.2
v 0.1 1.7 -0.2
v 0.1 1.9 -0.2
v 0.1 2.1 -0.2
v 0.1 2.2 -0.2
v 0.1 2.3 -0.2
v 0.1 2.4 -0.2
v 0.1 2.5 -0.2
v 0.2 1.9 -0.2
v 0.2 2.1 -0.2
v 0.2 2.2 -0.2
v 0.2 2.3 -0.2
v 0.2 2.4 -0.2
v 0.2 2.5 -0.2
v 0 1.9 -0.3
v 0 2.1 -0.3
v 0 2.2 -0.3
v 0 2.3 -0.3
v 0 2.4 -0.3
v 0 2.5 -0.3
v 0.1 1.9 -0.3
v 0.1 2.1 -0.3
v 0.1 2.2 -0.3
v 0.1 2.3 -0.3
v 0.1 2.4 -0.3
v 0.1 2.5 -0.3
v 0 1.7 -0.1
v 0.1 1.7 -0.1
v 0 1.7 -0.2
v 0.1 1.7 -0.2
v 0 1.9 0
v 0.1 1.9 0
v -0.1 1.9 -0.1
v 0 1.9 -0.1
v 0.1 1.9 -0.1
v 0.2 1.9 -0.1
v -0.1 1.9 -0.2
v 0 1.9 -0.2
v 0.1 1.9 -0.2
v 0.2 1.9 -0.2
v 0 1.9 -0.3
v 0.1 1.9 -0.3
v 0 2.4 0
v 0.1 2.4 0
v -0.1 2.4 -0.1
v 0 2.4 -0.1
v 0.1 2.4 -0.1
v 0.2 2.4 -0.1
v -0.1 2.4 -0.2
v 0 2.4 -0.2
v 0.1 2.4 -0.2
v 0.2 2.4 -0.2
v 0 2.4 -0.3
v 0.1 2.4 -0.3
v 0 2.3 0
v 0.1 2.3 0
v -0.1 2.3 -0.1
v 0 2.3 -0.1
v 0.1 2.3 -0.1
v 0.2 2.3 -0.1
v -0.1 2.3 -0.2
v 0 2.3 -0.2
v 0.1 2.3 -0.2
v 0.2 2.3 -0.2
v 0 2.3 -0.3
v 0.1 2.3 -0.3
v 0 2.5 0
v 0.1 2.5 0
v -0.1 2.5 -0.1
v 0 2.5 -0.1
v 0.1 2.5 -0.1
v 0.2 2.5 -0.1
v -0.1 2.5 -0.2
v 0 2.5 -0.2
v 0.1 2.5 -0.2
v 0.2 2.5 -0.2
v 0 2.5 -0.3
v 0.1 2.5 -0.3

# faces
f 3/3/1 2/3/1 1/3/1
f 4/3/1 2/3/1 3/3/1
f 5/2/1 4/2/1 3/2/1
f 6/2/1 4/2/1 5/2/1
f 7/3/1 6/3/1 5/3/1
f 8/3/1 6/3/1 7/3/1
f 11/1/1 10/1/1 9/1/1
f 12/1/1 10/1/1 11/1/1
f 16/1/1 14/1/1 13/1/1
f 17/1/1 14/1/1 16/1/1
f 19/3/1 16/3/1 15/3/1
f 20/3/1 16/3/1 19/3/1
f 21/3/1 18/3/1 17/3/1
f 22/3/1 18/3/1 21/3/1
f 23/2/1 20/2/1 19/2/1
f 24/2/1 20/2/1 23/2/1
f 25/2/1 22/2/1 21/2/1
f 26/2/1 22/2/1 25/2/1
f 27/3/1 24/3/1 23/3/1
f 28/3/1 24/3/1 27/3/1
f 29/3/1 26/3/1 25/3/1
f 30/3/1 26/3/1 29/3/1
f 32/1/1 29/1/1 28/1/1
f 33/1/1 29/1/1 32/1/1
f 35/1/1 32/1/1 31/1/1
f 36/1/1 32/1/1 35/1/1
f 37/1/1 34/1/1 33/1/1
f 38/1/1 34/1/1 37/1/1
f 39/1/2 40/1/2 42/1/2
f 42/1/2 40/1/2 43/1/2
f 41/3/2 42/3/2 45/3/2
f 45/3/2 42/3/2 46/3/2
f 43/3/2 44/3/2 47/3/2
f 47/3/2 44/3/2 48/3/2
f 45/2/2 46/2/2 49/2/2
f 49/2/2 46/2/2 50/2/2
f 47/2/2 48/2/2 51/2/2
f 51/2/2 48/2/2 52/2/2
f 49/3/2 50/3/2 53/3/2
f 53/3/2 50/3/2 54/3/2
f 51/3/2 52/3/2 55/3/2
f 55/3/2 52/3/2 56/3/2
f 54/1/2 55/1/2 58/1/2
f 58/1/2 55/1/2 59/1/2
f 57/1/2 58/1/2 61/1/2
f 61/1/2 58/1/2 62/1/2
f 59/1/2 60/1/2 63/1/2
f 63/1/2 60/1/2 64/1/2
f 65/3/2 66/3/2 67/3/2
f 67/3/2 66/3/2 68/3/2
f 67/2/2 68/2/2 69/2/2
f 69/2/2 68/2/2 70/2/2
f 69/3/2 70/3/2 71/3/2
f 71/3/2 70/3/2 72/3/2
f 73/1/2 74/1/2 75/1/2
f 75/1/2 74/1/2 76/1/2
f 83/3/3 78/3/3 77/3/3
f 84/2/3 79/2/3 78/2/3
f 84/3/3 78/3/3 83/3/3
f 85/3/3 80/3/3 79/3/3
f 85/2/3 79/2/3 84/2/3
f 86/3/3 80/3/3 85/3/3
f 87/1/3 82/1/3 81/1/3
f 88/1/3 82/1/3 87/1/3
f 96/3/3 90/3/3 89/3/3
f 97/2/3 91/2/3 90/2/3
f 97/3/3 90/3/3 96/3/3
f 98/3/3 92/3/3 91/3/3
f 98/2/3 91/2/3 97/2/3
f 99/3/3 92/3/3 98/3/3
f 100/1/3 94/1/3 93/1/3
f 101/1/3 94/1/3 100/1/3
f 102/1/3 96/1/3 95/1/3
f 103/1/3 96/1/3 102/1/3
f 106/1/3 100/1/3 99/1/3
f 107/1/3 100/1/3 106/1/3
f 109/3/3 104/3/3 103/3/3
f 110/2/3 105/2/3 104/2/3
f 110/3/3 104/3/3 109/3/3
f 111/3/3 106/3/3 105/3/3
f 111/2/3 105/2/3 110/2/3
f 112/3/3 106/3/3 111/3/3
f 113/1/3 108/1/3 107/1/3
f 114/1/3 108/1/3 113/1/3
f 115/3/4 116/3/4 122/3/4
f 116/2/4 117/2/4 123/2/4
f 122/3/4 116/3/4 123/3/4
f 117/3/4 118/3/4 124/3/4
f 123/2/4 117/2/4 124/2/4
f 124/3/4 118/3/4 125/3/4
f 119/1/4 120/1/4 126/1/4
f 126/1/4 120/1/4 127/1/4
f 121/1/4 122/1/4 128/1/4
f 128/1/4 122/1/4 129/1/4
f 125/1/4 126/1/4 132/1/4
f 132/1/4 126/1/4 133/1/4
f 129/3/4 130/3/4 135/3/4
f 130/2/4 131/2/4 136/2/4
f 135/3/4 130/3/4 136/3/4
f 131/3/4 132/3/4 137/3/4
f 136/2/4 131/2/4 137/2/4
f 137/3/4 132/3/4 138/3/4
f 133/1/4 134/1/4 139/1/4
f 139/1/4 134/1/4 140/1/4
f 141/3/4 142/3/4 147/3/4
f 142/2/4 143/2/4 148/2/4
f 147/3/4 142/3/4 148/3/4
f 143/3/4 144/3/4 149/3/4
f 148/2/4 143/2/4 149/2/4
f 149/3/4 144/3/4 150/3/4
f 145/1/4 146/1/4 151/1/4
f 151/1/4 146/1/4 152/1/4
f 155/1/5 154/1/5 153/1/5
f 156/1/5 154/1/5 155/1/5
f 160/3/5 158/3/5 157/3/5
f 161/3/5 158/3/5 160/3/5
f 163/3/5 160/3/5 159/3/5
f 164/3/5 160/3/5 163/3/5
f 165/3/5 162/3/5 161/3/5
f 166/3/5 162/3/5 165/3/5
f 167/3/5 165/3/5 164/3/5
f 168/3/5 165/3/5 167/3/5
f 172/1/5 170/1/5 169/1/5
f 173/1/5 170/1/5 172/1/5
f 175/1/5 172/1/5 171/1/5
f 176/1/5 172/1/5 175/1/5
f 177/1/5 174/1/5 173/1/5
f 178/1/5 174/1/5 177/1/5
f 179/1/5 177/1/5 176/1/5
f 180/1/5 177/1/5 179/1/5
f 181/3/6 182/3/6 184/3/6
f 184/3/6 182/3/6 185/3/6
f 183/3/6 184/3/6 187/3/6
f 187/3/6 184/3/6 188/3/6
f 185/3/6 186/3/6 189/3/6
f 189/3/6 186/3/6 190/3/6
f 188/3/6 189/3/6 191/3/6
f 191/3/6 189/3/6 192/3/6
f 193/1/6 194/1/6 196/1/6
f 196/1/6 194/1/6 197/1/6
f 195/1/6 196/1/6 199/1/6
f 197/1/6 198/1/6 199/1/6
f 196/1/6 197/1/6 199/1/6
f 199/1/6 198/1/6 200/1/6
f 200/1/6 198/1/6 201/1/6
f 201/1/6 198/1/6 202/1/6
f 200/1/6 201/1/6 203/1/6
f 203/1/6 201/1/6 204/1/6
