# MagicaVoxel @ Ephtracy

# group
o miniBoxDoor

# material
mtllib 1horG-4-miniBoxDoor.mtl
usemtl palette

# normals
vn -1 0 0
vn 1 0 0
vn 0 0 1
vn 0 0 -1
vn 0 -1 0
vn 0 1 0

# texcoords
vt 0.00976563 0.5
vt 0.0253906 0.5
vt 0.431641 0.5

# verts
v 0 1.7 0.3
v 0 1.7 -0.5
v 0 1.8 0
v 0 1.8 -0.2
v 0 1.8 -0.3
v 0 1.8 -0.5
v 0 1.9 -0.3
v 0 1.9 -0.5
v 0 2 0.2
v 0 2 0
v 0 2 -0.2
v 0 2 -0.4
v 0 2.2 0.2
v 0 2.2 0
v 0 2.2 -0.2
v 0 2.2 -0.4
v 0 2.3 -0.3
v 0 2.3 -0.5
v 0 2.4 0
v 0 2.4 -0.2
v 0 2.4 -0.3
v 0 2.4 -0.5
v 0 2.5 0.3
v 0 2.5 -0.5
v 0.1 1.7 0.3
v 0.1 1.7 -0.5
v 0.1 1.8 0
v 0.1 1.8 -0.2
v 0.1 1.8 -0.3
v 0.1 1.8 -0.5
v 0.1 1.9 -0.3
v 0.1 1.9 -0.5
v 0.1 2 0.2
v 0.1 2 0
v 0.1 2 -0.2
v 0.1 2 -0.4
v 0.1 2.2 0.2
v 0.1 2.2 0
v 0.1 2.2 -0.2
v 0.1 2.2 -0.4
v 0.1 2.3 -0.3
v 0.1 2.3 -0.5
v 0.1 2.4 0
v 0.1 2.4 -0.2
v 0.1 2.4 -0.3
v 0.1 2.4 -0.5
v 0.1 2.5 0.3
v 0.1 2.5 -0.5
v 0 1.7 0.3
v 0 2.5 0.3
v 0.1 1.7 0.3
v 0.1 2.5 0.3
v 0 1.7 -0.5
v 0 1.8 -0.5
v 0 1.9 -0.5
v 0 2.3 -0.5
v 0 2.4 -0.5
v 0 2.5 -0.5
v 0.1 1.7 -0.5
v 0.1 1.8 -0.5
v 0.1 1.9 -0.5
v 0.1 2.3 -0.5
v 0.1 2.4 -0.5
v 0.1 2.5 -0.5
v 0 1.7 0.3
v 0.1 1.7 0.3
v 0 1.7 -0.5
v 0.1 1.7 -0.5
v 0 2.5 0.3
v 0.1 2.5 0.3
v 0 2.5 -0.5
v 0.1 2.5 -0.5

# faces
f 3/2/1 2/2/1 1/2/1
f 4/2/1 2/2/1 3/2/1
f 5/2/1 2/2/1 4/2/1
f 6/2/1 2/2/1 5/2/1
f 7/2/1 5/2/1 4/2/1
f 7/1/1 6/1/1 5/1/1
f 8/1/1 6/1/1 7/1/1
f 9/2/1 3/2/1 1/2/1
f 10/3/1 4/3/1 3/3/1
f 10/2/1 3/2/1 9/2/1
f 11/2/1 7/2/1 4/2/1
f 11/3/1 4/3/1 10/3/1
f 11/2/1 8/2/1 7/2/1
f 12/2/1 8/2/1 11/2/1
f 13/2/1 9/2/1 1/2/1
f 13/3/1 10/3/1 9/3/1
f 13/3/1 12/3/1 11/3/1
f 13/3/1 11/3/1 10/3/1
f 14/3/1 12/3/1 13/3/1
f 15/3/1 12/3/1 14/3/1
f 16/2/1 8/2/1 12/2/1
f 16/3/1 12/3/1 15/3/1
f 17/2/1 16/2/1 15/2/1
f 18/2/1 8/2/1 16/2/1
f 18/2/1 16/2/1 17/2/1
f 19/3/1 15/3/1 14/3/1
f 19/2/1 14/2/1 13/2/1
f 20/2/1 17/2/1 15/2/1
f 20/3/1 15/3/1 19/3/1
f 21/1/1 18/1/1 17/1/1
f 21/2/1 17/2/1 20/2/1
f 22/1/1 18/1/1 21/1/1
f 23/2/1 13/2/1 1/2/1
f 23/2/1 20/2/1 19/2/1
f 23/2/1 22/2/1 21/2/1
f 23/2/1 21/2/1 20/2/1
f 23/2/1 19/2/1 13/2/1
f 24/2/1 22/2/1 23/2/1
f 25/2/2 26/2/2 27/2/2
f 27/2/2 26/2/2 28/2/2
f 28/2/2 26/2/2 29/2/2
f 29/2/2 26/2/2 30/2/2
f 28/2/2 29/2/2 31/2/2
f 29/1/2 30/1/2 31/1/2
f 31/1/2 30/1/2 32/1/2
f 25/2/2 27/2/2 33/2/2
f 27/3/2 28/3/2 34/3/2
f 33/2/2 27/2/2 34/2/2
f 28/2/2 31/2/2 35/2/2
f 34/3/2 28/3/2 35/3/2
f 31/2/2 32/2/2 35/2/2
f 35/2/2 32/2/2 36/2/2
f 25/2/2 33/2/2 37/2/2
f 33/3/2 34/3/2 37/3/2
f 35/3/2 36/3/2 37/3/2
f 34/3/2 35/3/2 37/3/2
f 37/3/2 36/3/2 38/3/2
f 38/3/2 36/3/2 39/3/2
f 36/2/2 32/2/2 40/2/2
f 39/3/2 36/3/2 40/3/2
f 39/2/2 40/2/2 41/2/2
f 40/2/2 32/2/2 42/2/2
f 41/2/2 40/2/2 42/2/2
f 38/3/2 39/3/2 43/3/2
f 37/2/2 38/2/2 43/2/2
f 39/2/2 41/2/2 44/2/2
f 43/3/2 39/3/2 44/3/2
f 41/1/2 42/1/2 45/1/2
f 44/2/2 41/2/2 45/2/2
f 45/1/2 42/1/2 46/1/2
f 25/2/2 37/2/2 47/2/2
f 43/2/2 44/2/2 47/2/2
f 45/2/2 46/2/2 47/2/2
f 44/2/2 45/2/2 47/2/2
f 37/2/2 43/2/2 47/2/2
f 47/2/2 46/2/2 48/2/2
f 51/2/3 50/2/3 49/2/3
f 52/2/3 50/2/3 51/2/3
f 53/2/4 54/2/4 59/2/4
f 54/1/4 55/1/4 60/1/4
f 59/2/4 54/2/4 60/2/4
f 55/2/4 56/2/4 61/2/4
f 60/1/4 55/1/4 61/1/4
f 56/1/4 57/1/4 62/1/4
f 61/2/4 56/2/4 62/2/4
f 57/2/4 58/2/4 63/2/4
f 62/1/4 57/1/4 63/1/4
f 63/2/4 58/2/4 64/2/4
f 67/2/5 66/2/5 65/2/5
f 68/2/5 66/2/5 67/2/5
f 69/2/6 70/2/6 71/2/6
f 71/2/6 70/2/6 72/2/6
