# MagicaVoxel @ Ephtracy

# group
o miniBox

# material
mtllib 1horG-5-miniBox.mtl
usemtl palette

# normals
vn -1 0 0
vn 1 0 0
vn 0 0 1
vn 0 0 -1
vn 0 -1 0
vn 0 1 0

# texcoords
vt 0.0253906 0.5
vt 0.0644531 0.5
vt 0.0917969 0.5

# verts
v -0.2 1.6 0.4
v -0.2 1.6 -0.6
v -0.2 1.7 0.3
v -0.2 1.7 -0.5
v -0.2 1.8 -0.5
v -0.2 1.8 -0.6
v -0.2 1.9 -0.5
v -0.2 1.9 -0.6
v -0.2 2.3 -0.5
v -0.2 2.3 -0.6
v -0.2 2.4 -0.5
v -0.2 2.4 -0.6
v -0.2 2.5 0.3
v -0.2 2.5 -0.5
v -0.2 2.6 0.4
v -0.2 2.6 -0.6
v 0.1 1.7 0.3
v 0.1 1.7 -0.5
v 0.1 2.5 0.3
v 0.1 2.5 -0.5
v 0.2 1.6 0.4
v 0.2 1.6 0.3
v 0.2 1.6 -0.5
v 0.2 1.6 -0.6
v 0.2 2.6 0.4
v 0.2 2.6 0.3
v 0.2 2.6 -0.5
v 0.2 2.6 -0.6
v -0.2 1.6 0.4
v -0.2 2.6 0.4
v 0.2 1.6 0.4
v 0.2 2.6 0.4
v -0.2 1.7 -0.5
v -0.2 1.8 -0.5
v -0.2 1.9 -0.5
v -0.2 2.3 -0.5
v -0.2 2.4 -0.5
v -0.2 2.5 -0.5
v -0.1 1.7 -0.5
v -0.1 2.5 -0.5
v 0 1.8 -0.5
v 0 1.9 -0.5
v 0 2.3 -0.5
v 0 2.4 -0.5
v 0.1 1.7 -0.5
v 0.1 2.5 -0.5
v -0.2 1.7 0.3
v -0.2 2.5 0.3
v -0.1 1.7 0.3
v -0.1 2.5 0.3
v 0.1 1.7 0.3
v 0.1 2.5 0.3
v -0.2 1.6 -0.6
v -0.2 1.8 -0.6
v -0.2 1.9 -0.6
v -0.2 2.3 -0.6
v -0.2 2.4 -0.6
v -0.2 2.6 -0.6
v 0 1.8 -0.6
v 0 1.9 -0.6
v 0 2.3 -0.6
v 0 2.4 -0.6
v 0.2 1.6 -0.6
v 0.2 2.6 -0.6
v -0.2 1.6 0.4
v 0.2 1.6 0.4
v -0.1 1.6 0.3
v 0.2 1.6 0.3
v -0.1 1.6 -0.5
v 0.2 1.6 -0.5
v -0.2 1.6 -0.6
v 0.2 1.6 -0.6
v -0.2 2.5 0.3
v -0.1 2.5 0.3
v 0.1 2.5 0.3
v -0.2 2.5 -0.5
v -0.1 2.5 -0.5
v 0.1 2.5 -0.5
v -0.2 1.7 0.3
v -0.1 1.7 0.3
v 0.1 1.7 0.3
v -0.2 1.7 -0.5
v -0.1 1.7 -0.5
v 0.1 1.7 -0.5
v -0.2 2.6 0.4
v 0.2 2.6 0.4
v -0.1 2.6 0.3
v 0.2 2.6 0.3
v -0.1 2.6 -0.5
v 0.2 2.6 -0.5
v -0.2 2.6 -0.6
v 0.2 2.6 -0.6

# faces
f 3/1/1 2/1/1 1/1/1
f 4/1/1 2/1/1 3/1/1
f 5/1/1 2/1/1 4/1/1
f 6/1/1 2/1/1 5/1/1
f 7/2/1 6/2/1 5/2/1
f 8/2/1 6/2/1 7/2/1
f 9/1/1 8/1/1 7/1/1
f 10/1/1 8/1/1 9/1/1
f 11/2/1 10/2/1 9/2/1
f 12/2/1 10/2/1 11/2/1
f 13/1/1 3/1/1 1/1/1
f 14/1/1 12/1/1 11/1/1
f 15/1/1 13/1/1 1/1/1
f 15/1/1 14/1/1 13/1/1
f 16/1/1 12/1/1 14/1/1
f 16/1/1 14/1/1 15/1/1
f 19/3/1 18/3/1 17/3/1
f 20/3/1 18/3/1 19/3/1
f 21/1/2 22/1/2 25/1/2
f 22/3/2 23/3/2 26/3/2
f 25/1/2 22/1/2 26/1/2
f 23/1/2 24/1/2 27/1/2
f 26/3/2 23/3/2 27/3/2
f 27/1/2 24/1/2 28/1/2
f 31/1/3 30/1/3 29/1/3
f 32/1/3 30/1/3 31/1/3
f 39/1/3 34/1/3 33/1/3
f 40/1/3 38/1/3 37/1/3
f 41/1/3 34/1/3 39/1/3
f 41/2/3 35/2/3 34/2/3
f 42/1/3 36/1/3 35/1/3
f 42/2/3 35/2/3 41/2/3
f 43/2/3 37/2/3 36/2/3
f 43/1/3 36/1/3 42/1/3
f 44/1/3 40/1/3 37/1/3
f 44/2/3 37/2/3 43/2/3
f 45/1/3 43/1/3 42/1/3
f 45/1/3 41/1/3 39/1/3
f 45/1/3 44/1/3 43/1/3
f 45/1/3 42/1/3 41/1/3
f 46/1/3 40/1/3 44/1/3
f 46/1/3 44/1/3 45/1/3
f 47/1/4 48/1/4 49/1/4
f 49/1/4 48/1/4 50/1/4
f 49/1/4 50/1/4 51/1/4
f 51/1/4 50/1/4 52/1/4
f 53/1/4 54/1/4 59/1/4
f 54/2/4 55/2/4 59/2/4
f 55/1/4 56/1/4 60/1/4
f 59/2/4 55/2/4 60/2/4
f 56/2/4 57/2/4 61/2/4
f 60/1/4 56/1/4 61/1/4
f 57/1/4 58/1/4 62/1/4
f 61/2/4 57/2/4 62/2/4
f 60/1/4 61/1/4 63/1/4
f 59/1/4 60/1/4 63/1/4
f 61/1/4 62/1/4 63/1/4
f 53/1/4 59/1/4 63/1/4
f 62/1/4 58/1/4 64/1/4
f 63/1/4 62/1/4 64/1/4
f 67/1/5 66/1/5 65/1/5
f 68/1/5 66/1/5 67/1/5
f 69/1/5 67/1/5 65/1/5
f 69/3/5 68/3/5 67/3/5
f 70/3/5 68/3/5 69/3/5
f 71/1/5 69/1/5 65/1/5
f 71/1/5 70/1/5 69/1/5
f 72/1/5 70/1/5 71/1/5
f 76/1/5 74/1/5 73/1/5
f 77/3/5 75/3/5 74/3/5
f 77/1/5 74/1/5 76/1/5
f 78/3/5 75/3/5 77/3/5
f 79/1/6 80/1/6 82/1/6
f 80/3/6 81/3/6 83/3/6
f 82/1/6 80/1/6 83/1/6
f 83/3/6 81/3/6 84/3/6
f 85/1/6 86/1/6 87/1/6
f 87/1/6 86/1/6 88/1/6
f 85/1/6 87/1/6 89/1/6
f 87/3/6 88/3/6 89/3/6
f 89/3/6 88/3/6 90/3/6
f 85/1/6 89/1/6 91/1/6
f 89/1/6 90/1/6 91/1/6
f 91/1/6 90/1/6 92/1/6
